<svg width="28" height="28" viewBox="0 0 28 28" fill="none" xmlns="http://www.w3.org/2000/svg">
<mask id="mask0_24418_975" style="mask-type:alpha" maskUnits="userSpaceOnUse" x="0" y="0" width="28" height="28">
<rect width="28" height="28" fill="#D9D9D9"/>
</mask>
<g mask="url(#mask0_24418_975)">
<path d="M6.125 22.0321C5.87708 22.0321 5.66927 21.9482 5.50156 21.7804C5.33385 21.6126 5.25 21.4048 5.25 21.1567C5.25 20.9087 5.33385 20.7009 5.50156 20.5334C5.66927 20.3659 5.87708 20.2821 6.125 20.2821H7.35898V11.577C7.35898 10.008 7.84322 8.62068 8.81169 7.41512C9.78018 6.20957 11.0235 5.43853 12.5417 5.102V4.37508C12.5417 3.97 12.6833 3.62567 12.9666 3.34212C13.2499 3.05854 13.5939 2.91675 13.9987 2.91675C14.4034 2.91675 14.7478 3.05854 15.032 3.34212C15.3162 3.62567 15.4583 3.97 15.4583 4.37508V5.102C16.9764 5.43853 18.2198 6.20957 19.1883 7.41512C20.1567 8.62068 20.641 10.008 20.641 11.577V20.2821H21.8749C22.1229 20.2821 22.3307 20.366 22.4984 20.5338C22.6661 20.7016 22.7499 20.9095 22.7499 21.1575C22.7499 21.4055 22.6661 21.6133 22.4984 21.7808C22.3307 21.9483 22.1229 22.0321 21.8749 22.0321H6.125ZM13.998 25.3077C13.4175 25.3077 12.9212 25.1012 12.5091 24.6882C12.0971 24.2752 11.891 23.7787 11.891 23.1988H16.1089C16.1089 23.7806 15.9022 24.2775 15.4888 24.6896C15.0755 25.1017 14.5785 25.3077 13.998 25.3077ZM9.10892 20.2821H18.891V11.577C18.891 10.2263 18.4135 9.07349 17.4585 8.11848C16.5035 7.16344 15.3506 6.68593 14 6.68593C12.6493 6.68593 11.4965 7.16344 10.5415 8.11848C9.58644 9.07349 9.10892 10.2263 9.10892 11.577V20.2821Z" fill="#7F7F7F"/>
<path d="M6.125 22.0318C5.87708 22.0318 5.66927 21.948 5.50156 21.7802C5.33385 21.6124 5.25 21.4045 5.25 21.1565C5.25 20.9085 5.33385 20.7007 5.50156 20.5332C5.66927 20.3657 5.87708 20.2819 6.125 20.2819H7.35898V11.5767C7.35898 10.0077 7.84322 8.62044 8.81169 7.41488C9.78018 6.20932 11.0235 5.43828 12.5417 5.10176V4.37484C12.5417 3.96975 12.6833 3.62543 12.9666 3.34187C13.2499 3.05829 13.5939 2.9165 13.9987 2.9165C14.4034 2.9165 14.7478 3.05829 15.032 3.34187C15.3162 3.62543 15.4583 3.96975 15.4583 4.37484V5.10176C16.9764 5.43828 18.2198 6.20932 19.1883 7.41488C20.1567 8.62044 20.641 10.0077 20.641 11.5767V20.2819H21.8749C22.1229 20.2819 22.3307 20.3658 22.4984 20.5336C22.6661 20.7013 22.7499 20.9092 22.7499 21.1573C22.7499 21.4053 22.6661 21.6131 22.4984 21.7806C22.3307 21.9481 22.1229 22.0318 21.8749 22.0318H6.125ZM13.998 25.3075C13.4175 25.3075 12.9212 25.101 12.5091 24.688C12.0971 24.275 11.891 23.7785 11.891 23.1985H16.1089C16.1089 23.7803 15.9022 24.2773 15.4888 24.6894C15.0755 25.1014 14.5785 25.3075 13.998 25.3075ZM9.10892 20.2819H18.891V11.5767C18.891 10.2261 18.4135 9.07325 17.4585 8.11823C16.5035 7.1632 15.3506 6.68568 14 6.68568C12.6493 6.68568 11.4965 7.1632 10.5415 8.11823C9.58644 9.07325 9.10892 10.2261 9.10892 11.5767V20.2819Z" fill="#7F7F7F"/>
</g>
</svg>
