<svg width="49" height="48" viewBox="0 0 49 48" fill="none" xmlns="http://www.w3.org/2000/svg">
<mask id="mask0_26586_11630" style="mask-type:alpha" maskUnits="userSpaceOnUse" x="0" y="0" width="49" height="48">
<rect x="0.25" width="48" height="48" fill="#D9D9D9"/>
</mask>
<g mask="url(#mask0_26586_11630)">
<path d="M39.7499 10.3077V18C39.7499 18.425 39.6061 18.7812 39.3185 19.0687C39.0309 19.3562 38.6745 19.4999 38.2493 19.4999C37.8241 19.4999 37.4679 19.3562 37.1808 19.0687C36.8936 18.7812 36.75 18.425 36.75 18V13.6576L27.6461 22.6923C28.2922 23.6384 28.8044 24.6407 29.1826 25.699C29.5608 26.7573 29.7499 27.8576 29.7499 29C29.7499 31.9272 28.7319 34.409 26.6959 36.4454C24.6599 38.4817 22.1785 39.4999 19.2517 39.4999C16.3249 39.4999 13.8429 38.4819 11.8058 36.4459C9.76858 34.4099 8.75 31.9285 8.75 29.0017C8.75 26.0749 9.76817 23.5929 11.8045 21.5558C13.8409 19.5186 16.3227 18.5 19.25 18.5C20.3756 18.5 21.4685 18.684 22.5288 19.0519C23.5891 19.4199 24.582 19.9372 25.5077 20.6039L34.6116 11.4999H30.25C29.825 11.4999 29.4687 11.3561 29.1812 11.0685C28.8937 10.7809 28.75 10.4245 28.75 9.9993C28.75 9.5741 28.8937 9.21792 29.1812 8.93075C29.4687 8.64359 29.825 8.5 30.25 8.5H37.9423C38.4544 8.5 38.8837 8.67324 39.2302 9.0197C39.5767 9.36617 39.7499 9.79548 39.7499 10.3077ZM19.2469 21.4999C17.1746 21.4999 15.407 22.2324 13.9442 23.6973C12.4813 25.1622 11.7499 26.9308 11.7499 29.0031C11.7499 31.0754 12.4824 32.8429 13.9473 34.3057C15.4122 35.7686 17.1808 36.5 19.2531 36.5C21.3254 36.5 23.0929 35.7675 24.5558 34.3026C26.0186 32.8377 26.75 31.0691 26.75 28.9968C26.75 26.9245 26.0176 25.157 24.5527 23.6942C23.0878 22.2313 21.3192 21.4999 19.2469 21.4999Z" fill="white"/>
</g>
</svg>
