<svg width="24" height="24" viewBox="0 0 24 24" fill="none" xmlns="http://www.w3.org/2000/svg">
<mask id="mask0_28754_11872" style="mask-type:alpha" maskUnits="userSpaceOnUse" x="0" y="0" width="24" height="24">
<rect width="24" height="24" fill="#D9D9D9"/>
</mask>
<g mask="url(#mask0_28754_11872)">
<path d="M12.9992 20.5C12.0074 20.5 11.0608 20.3375 10.1592 20.0126C9.25772 19.6877 8.43669 19.2328 7.69616 18.648C7.52949 18.5096 7.43975 18.3365 7.42694 18.1288C7.41412 17.9211 7.48527 17.7397 7.64039 17.5846C7.79552 17.4295 7.97853 17.3535 8.18941 17.3567C8.40031 17.3599 8.59358 17.4288 8.76921 17.5634C9.37178 18.0224 10.0253 18.3766 10.7298 18.6259C11.4343 18.8753 12.191 19 13 19C14.9397 19 16.5913 18.3182 17.9548 16.9548C19.3183 15.5913 20 13.9397 20 12C20 10.0666 19.3167 8.41664 17.95 7.04998C16.5833 5.68331 14.9333 4.99998 13 4.99998C11.0667 4.99998 9.41665 5.68331 8.04999 7.04998C6.68332 8.41664 5.99999 10.0666 5.99999 12V12.7808L7.47116 11.3096C7.60803 11.1712 7.77909 11.1019 7.98436 11.1019C8.18966 11.1019 8.36666 11.1712 8.51536 11.3096C8.67049 11.4583 8.74646 11.6365 8.74326 11.8442C8.74004 12.0519 8.66408 12.2301 8.51536 12.3788L5.88269 15.0115C5.70192 15.1923 5.49103 15.2827 5.25001 15.2827C5.00898 15.2827 4.79808 15.1923 4.61731 15.0115L1.96926 12.3634C1.82054 12.2147 1.74714 12.0365 1.74906 11.8288C1.75099 11.6211 1.82791 11.4481 1.97981 11.3096C2.13174 11.1712 2.31155 11.101 2.51924 11.0991C2.72692 11.0971 2.89999 11.1705 3.03846 11.3192L4.50001 12.8058V12C4.50001 10.82 4.72309 9.71474 5.16926 8.68423C5.61541 7.65371 6.22181 6.75512 6.98846 5.98845C7.75513 5.2218 8.65366 4.6154 9.68406 4.16925C10.7145 3.72308 11.8196 3.5 12.9994 3.5C14.1793 3.5 15.2846 3.72308 16.3154 4.16925C17.3461 4.6154 18.2448 5.2218 19.0115 5.98845C19.7782 6.75512 20.3846 7.65362 20.8307 8.68395C21.2769 9.71428 21.5 10.8193 21.5 11.9991C21.5 14.3587 20.6735 16.3653 19.0206 18.0192C17.3676 19.673 15.3605 20.5 12.9992 20.5ZM11 15.8846C10.733 15.8846 10.5092 15.7943 10.3286 15.6137C10.148 15.4331 10.0577 15.2093 10.0577 14.9423V11.9423C10.0577 11.6753 10.1535 11.4515 10.3452 11.2709C10.5369 11.0903 10.7744 11 11.0577 11V9.94228C11.0577 9.40814 11.2479 8.95089 11.6282 8.57053C12.0086 8.19016 12.4659 7.99998 13 7.99998C13.5341 7.99998 13.9914 8.19016 14.3717 8.57053C14.7521 8.95089 14.9423 9.40814 14.9423 9.94228V11C15.2256 11 15.4631 11.0903 15.6548 11.2709C15.8465 11.4515 15.9423 11.6753 15.9423 11.9423V14.9423C15.9423 15.2093 15.852 15.4331 15.6714 15.6137C15.4908 15.7943 15.267 15.8846 15 15.8846H11ZM11.9423 11H14.0577V9.946C14.0577 9.64737 13.9554 9.39581 13.751 9.19133C13.5465 8.98683 13.2961 8.88458 13 8.88458C12.7038 8.88458 12.4535 8.98683 12.249 9.19133C12.0445 9.39581 11.9423 9.64737 11.9423 9.946V11Z" fill="#444444"/>
</g>
</svg>
