<svg width="32" height="32" viewBox="0 0 32 32" fill="none" xmlns="http://www.w3.org/2000/svg">
<mask id="mask0_23539_8925" style="mask-type:alpha" maskUnits="userSpaceOnUse" x="0" y="0" width="32" height="32">
<rect width="32" height="32" fill="#D9D9D9"/>
</mask>
<g mask="url(#mask0_23539_8925)">
<path d="M9.7436 27.333C9.07864 27.333 8.5107 27.0976 8.03977 26.6266C7.56881 26.1557 7.33333 25.5877 7.33333 24.9228V7.99975H7C6.71624 7.99975 6.47864 7.90402 6.2872 7.71258C6.09573 7.52114 6 7.28353 6 6.99978C6 6.71602 6.09573 6.47842 6.2872 6.28698C6.47864 6.09551 6.71624 5.99978 7 5.99978H12C12 5.67329 12.1149 5.39509 12.3448 5.16518C12.5747 4.93527 12.8529 4.82031 13.1794 4.82031H18.8205C19.147 4.82031 19.4252 4.93527 19.6551 5.16518C19.885 5.39509 20 5.67329 20 5.99978H24.9999C25.2837 5.99978 25.5213 6.09551 25.7127 6.28698C25.9042 6.47842 25.9999 6.71602 25.9999 6.99978C25.9999 7.28353 25.9042 7.52114 25.7127 7.71258C25.5213 7.90402 25.2837 7.99975 24.9999 7.99975H24.6666V24.9228C24.6666 25.5877 24.4311 26.1557 23.9602 26.6266C23.4892 27.0976 22.9213 27.333 22.2563 27.333H9.7436ZM22.6666 7.99975H9.3333V24.9228C9.3333 25.0424 9.37177 25.1407 9.4487 25.2177C9.52563 25.2946 9.62393 25.3331 9.7436 25.3331H22.2563C22.376 25.3331 22.4743 25.2946 22.5512 25.2177C22.6282 25.1407 22.6666 25.0424 22.6666 24.9228V7.99975ZM12.5385 22.6664H14.5384V10.6664H12.5385V22.6664ZM17.4615 22.6664H19.4615V10.6664H17.4615V22.6664Z" fill="#7F7F7F"/>
</g>
</svg>
