<svg width="25" height="24" viewBox="0 0 25 24" fill="none" xmlns="http://www.w3.org/2000/svg">
<mask id="mask0_19306_11568" style="mask-type:alpha" maskUnits="userSpaceOnUse" x="0" y="0" width="25" height="24">
<rect x="0.625" width="24" height="24" fill="#D9D9D9"/>
</mask>
<g mask="url(#mask0_19306_11568)">
<path d="M12.625 17.4615L8.65575 19.1653C8.0532 19.423 7.48077 19.3736 6.93847 19.0172C6.39616 18.6608 6.125 18.1595 6.125 17.5134V5.3077C6.125 4.80257 6.3 4.375 6.65 4.025C7 3.675 7.42757 3.5 7.9327 3.5H17.3172C17.8224 3.5 18.25 3.675 18.6 4.025C18.95 4.375 19.125 4.80257 19.125 5.3077V17.5134C19.125 18.1595 18.8538 18.6608 18.3115 19.0172C17.7692 19.3736 17.1967 19.423 16.5942 19.1653L12.625 17.4615ZM12.625 15.8L17.1922 17.7673C17.2948 17.8121 17.3926 17.8025 17.4855 17.7384C17.5785 17.6743 17.625 17.5878 17.625 17.4788V5.3077C17.625 5.23077 17.5929 5.16024 17.5288 5.09613C17.4647 5.03203 17.3942 4.99998 17.3172 4.99998H7.9327C7.85577 4.99998 7.78524 5.03203 7.72113 5.09613C7.65702 5.16024 7.62497 5.23077 7.62497 5.3077V17.4788C7.62497 17.5878 7.67145 17.6743 7.7644 17.7384C7.85737 17.8025 7.95513 17.8121 8.0577 17.7673L12.625 15.8Z" fill="black"/>
</g>
</svg>
