<svg width="28" height="28" viewBox="0 0 28 28" fill="none" xmlns="http://www.w3.org/2000/svg">
<mask id="mask0_20743_7597" style="mask-type:alpha" maskUnits="userSpaceOnUse" x="0" y="0" width="28" height="28">
<rect width="28" height="28" transform="matrix(-1 0 0 1 28 0)" fill="#D9D9D9"/>
</mask>
<g mask="url(#mask0_20743_7597)">
<path d="M24.2846 14L15.4965 22.7881C15.2647 23.0199 15.1517 23.2929 15.1577 23.607C15.1637 23.9211 15.2826 24.1941 15.5145 24.4259C15.7463 24.6577 16.0192 24.7737 16.3333 24.7737C16.6475 24.7737 16.9204 24.6577 17.1522 24.4259L26.1019 15.4942C26.3128 15.2833 26.4692 15.0469 26.5708 14.7852C26.6725 14.5234 26.7234 14.2617 26.7234 14C26.7234 13.7382 26.6725 13.4765 26.5708 13.2147C26.4691 12.953 26.3128 12.7166 26.1019 12.5057L17.1522 3.55607C16.9204 3.32423 16.6445 3.2113 16.3244 3.21727C16.0043 3.22325 15.7283 3.34217 15.4965 3.574C15.2647 3.80584 15.1487 4.0788 15.1487 4.39289C15.1487 4.70699 15.2647 4.97996 15.4965 5.2118L24.2846 14Z" fill="#7F7F7F"/>
</g>
</svg>
