<svg width="205" height="48" viewBox="0 0 205 48" fill="none" xmlns="http://www.w3.org/2000/svg">
<path d="M21.2227 0.330566H30.8093V32.9158C30.7865 41.9914 24.3878 47.6693 15.0062 47.6693C6.58089 47.6693 -0.0227124 43.2227 5.87129e-05 33.9876H9.65498C9.72329 37.7044 12.0004 39.8479 15.4616 39.8479C19.1505 39.8479 21.1999 37.4764 21.2227 32.9158V0.330566Z" fill="black"/>
<path d="M41.8008 24C41.8008 38.6452 51.9018 48 65.7672 48C79.6327 48 89.7337 38.6452 89.7337 24C89.7337 9.35484 79.6327 0 65.7672 0C51.9018 0 41.8008 9.35484 41.8008 24ZM51.9646 24C51.9646 15.4839 57.4229 9.29032 65.7672 9.29032C74.1116 9.29032 79.5699 15.4839 79.5699 24C79.5699 32.5161 74.1116 38.7097 65.7672 38.7097C57.4229 38.7097 51.9646 32.5161 51.9646 24Z" fill="black"/>
<path d="M100.725 47.3501V0.649902H119.283C129.553 0.649902 134.745 5.62092 134.745 12.6442C134.745 18.1625 131.147 21.5829 126.319 22.6547V23.1107C131.602 23.3615 136.566 27.5345 136.566 34.4893C136.566 41.8774 131.01 47.3501 120.49 47.3501H100.725ZM110.402 39.3919H118.577C124.133 39.3919 126.57 37.0661 126.57 33.5316C126.57 29.6095 123.587 26.8504 118.782 26.8504H110.402V39.3919ZM110.402 20.2147H117.848C121.924 20.2147 124.953 17.9573 124.953 14.2176C124.953 10.82 122.448 8.51689 118.031 8.51689H110.402V20.2147Z" fill="black"/>
<path d="M157.234 0.649902V47.3501H147.557V0.649902H157.234Z" fill="black"/>
<path d="M195.049 14.001C194.685 10.2841 191.747 8.11782 187.011 8.11782C182.115 8.11782 179.382 10.3753 179.382 13.4537C179.314 16.8741 182.798 18.3791 186.829 19.314L191.041 20.3401C199.011 22.1416 204.954 26.2233 205 34.0219C204.954 42.5501 198.305 48 186.942 48C175.694 48 168.498 42.7782 168.225 32.7905H177.629C177.948 37.4879 181.682 39.8366 186.829 39.8366C191.906 39.8366 195.186 37.4879 195.208 33.9762C195.186 30.8067 192.316 29.3245 187.238 28.0703L182.138 26.8162C174.282 24.9007 169.431 20.9786 169.454 14.0922C169.409 5.6323 176.9 0 187.079 0C197.417 0 204.226 5.72352 204.362 14.001H195.049Z" fill="black"/>
</svg>
