<svg width="28" height="28" viewBox="0 0 28 28" fill="none" xmlns="http://www.w3.org/2000/svg">
<path d="M14.6306 3.74457C15.288 3.15482 16.3333 3.62091 16.3333 4.50349V23.4968C16.3333 24.38 15.288 24.8461 14.6306 24.2563L9.84375 19.9595C9.33535 19.5029 8.67616 19.2503 7.99283 19.2502H5.25C4.43777 19.2502 3.65882 18.9275 3.08449 18.3532C2.51016 17.7788 2.1875 16.9999 2.1875 16.1877V11.8127C2.1875 10.121 3.55833 8.75016 5.25 8.75016H7.99283C8.67616 8.75003 9.33535 8.49741 9.84375 8.04082L14.6306 3.74457ZM14.875 5.48466L10.8179 9.12699C10.0418 9.82346 9.03566 10.2086 7.99283 10.2085H5.25C4.82455 10.2085 4.41652 10.3775 4.11568 10.6783C3.81484 10.9792 3.64583 11.3872 3.64583 11.8127V16.1877C3.64583 16.6131 3.81484 17.0211 4.11568 17.322C4.41652 17.6228 4.82455 17.7918 5.25 17.7918H7.99283C9.03574 17.7918 10.0419 18.1772 10.8179 18.8739L14.875 22.5168V5.48466ZM21.1972 4.89782C21.3293 4.75681 21.5121 4.67403 21.7052 4.66769C21.8984 4.66135 22.0862 4.73195 22.2273 4.86399L22.2337 4.86982L22.2448 4.88032C22.2974 4.93067 22.3483 4.98261 22.3977 5.03607C22.4968 5.14107 22.6333 5.29332 22.7955 5.49282C23.2386 6.04116 23.6322 6.62777 23.9715 7.24574C24.8226 8.78457 25.6667 11.0561 25.6667 14.0002C25.6667 16.9442 24.8226 19.2152 23.9715 20.7552C23.6321 21.3729 23.2386 21.9593 22.7955 22.5075C22.6323 22.7082 22.4601 22.9012 22.2792 23.0862C22.2677 23.0975 22.256 23.1088 22.2442 23.12L22.2337 23.1305L22.2302 23.134L22.2285 23.1352L22.3568 23.0074C22.4192 22.945 22.4402 22.9234 22.2273 23.1357C22.0852 23.2609 21.8999 23.3259 21.7108 23.3169C21.5216 23.3079 21.3433 23.2257 21.2137 23.0876C21.0841 22.9495 21.0133 22.7664 21.0163 22.577C21.0193 22.3876 21.0959 22.2068 21.2298 22.0729L21.2322 22.0706C21.2679 22.0359 21.3027 22.0003 21.3366 21.9638C21.413 21.8822 21.5267 21.7567 21.665 21.5864C22.0532 21.1055 22.3979 20.5911 22.6952 20.0493C23.4488 18.6867 24.2083 16.6561 24.2083 14.0002C24.2083 11.3442 23.4488 9.31366 22.6952 7.95099C22.3979 7.40897 22.0532 6.8944 21.665 6.41332C21.5339 6.25211 21.3957 6.09679 21.2508 5.94782C21.2446 5.94157 21.2384 5.93535 21.2322 5.92916L21.2304 5.92741L21.2292 5.92624C21.0888 5.79388 21.0066 5.61125 21.0006 5.41837C20.9946 5.22549 21.0653 5.03868 21.1972 4.89782ZM18.8615 8.40016C18.9267 8.32997 19.005 8.2733 19.0921 8.23341C19.1792 8.19352 19.2733 8.17117 19.369 8.16765C19.4647 8.16413 19.5602 8.1795 19.65 8.21289C19.7398 8.24628 19.8221 8.29703 19.8923 8.36224L19.8928 8.36282L19.894 8.36399L19.8969 8.36691L19.9051 8.37391L19.9296 8.39782C20.0496 8.51811 20.1644 8.64345 20.2738 8.77349C20.4867 9.02782 20.7673 9.39882 21.0467 9.87774C21.7797 11.1279 22.1664 12.5509 22.1667 14.0002C22.1667 15.7636 21.6049 17.1653 21.0467 18.1232C20.7667 18.6015 20.4867 18.9731 20.2732 19.2274C20.1638 19.3575 20.049 19.4828 19.929 19.6031L19.9179 19.6142L19.9051 19.6264L19.8969 19.634L19.894 19.6369L19.8928 19.6387H19.8917C19.7497 19.7672 19.5629 19.8347 19.3715 19.8266C19.1802 19.8185 18.9997 19.7355 18.8691 19.5954C18.7385 19.4554 18.6682 19.2696 18.6734 19.0781C18.6787 18.8867 18.759 18.705 18.8971 18.5723L18.8982 18.5712L18.9076 18.5618C18.9175 18.5519 18.9344 18.5356 18.9572 18.5117C19.0027 18.4644 19.0715 18.3897 19.1555 18.2894C19.3247 18.0876 19.5551 17.7842 19.7861 17.3882C20.3894 16.361 20.7078 15.1914 20.7083 14.0002C20.7083 12.5552 20.2492 11.4049 19.7867 10.6127C19.5557 10.2161 19.3258 9.91274 19.1567 9.71149C19.0776 9.61736 18.9947 9.52648 18.9082 9.43907L18.8982 9.42916L18.8988 9.42974C18.7575 9.29807 18.6742 9.1157 18.6672 8.92267C18.6602 8.72964 18.7301 8.54172 18.8615 8.40016ZM22.2337 4.86982L22.2273 4.86399L22.2285 4.86516L22.2302 4.86632L22.2337 4.86982ZM19.8923 8.36166L19.9296 8.39782C19.916 8.38704 19.9035 8.37493 19.8923 8.36166Z" fill="#0F4C82"/>
</svg>
