<svg width="28" height="28" viewBox="0 0 28 28" fill="none" xmlns="http://www.w3.org/2000/svg">
<mask id="mask0_163_7008" style="mask-type:alpha" maskUnits="userSpaceOnUse" x="0" y="0" width="28" height="28">
<rect width="28" height="28" fill="#D9D9D9"/>
</mask>
<g mask="url(#mask0_163_7008)">
<path d="M24.298 14.875H21.8301C21.5818 14.875 21.3739 14.7913 21.2064 14.6238C21.0388 14.4562 20.9551 14.2483 20.9551 14.0001C20.9551 13.7518 21.0388 13.5439 21.2064 13.3764C21.3739 13.2088 21.5818 13.1251 21.8301 13.1251H24.298C24.5463 13.1251 24.7542 13.2088 24.9217 13.3764C25.0892 13.5439 25.173 13.7518 25.173 14.0001C25.173 14.2483 25.0892 14.4562 24.9217 14.6238C24.7542 14.7913 24.5463 14.875 24.298 14.875ZM19.4452 19.4991C19.5947 19.2942 19.7858 19.176 20.0184 19.1446C20.251 19.1132 20.4697 19.1723 20.6746 19.3218L22.6422 20.8004C22.8471 20.9499 22.9653 21.141 22.9967 21.3736C23.0281 21.6062 22.9691 21.8249 22.8195 22.0298C22.6699 22.2348 22.4789 22.3529 22.2463 22.3843C22.0137 22.4157 21.7949 22.3567 21.59 22.2071L19.6224 20.7285C19.4175 20.579 19.2993 20.3879 19.2679 20.1553C19.2365 19.9227 19.2956 19.704 19.4452 19.4991ZM22.5974 7.15484L20.6297 8.63339C20.4248 8.78296 20.2061 8.84204 19.9735 8.81064C19.7409 8.77921 19.5498 8.66105 19.4003 8.45614C19.2507 8.25124 19.1916 8.0325 19.223 7.79992C19.2545 7.56735 19.3726 7.37627 19.5775 7.22668L21.5452 5.74816C21.7501 5.5986 21.9688 5.53952 22.2014 5.57092C22.434 5.60232 22.625 5.72049 22.7746 5.92541C22.9242 6.13032 22.9832 6.34906 22.9518 6.58163C22.9204 6.81421 22.8023 7.00528 22.5974 7.15484ZM6.12498 17.0064H4.93586C4.35404 17.0064 3.85709 16.8004 3.445 16.3883C3.03294 15.9763 2.8269 15.4793 2.8269 14.8975V13.1026C2.8269 12.5208 3.03294 12.0239 3.445 11.6118C3.85709 11.1997 4.35404 10.9937 4.93586 10.9937H9.44546L13.0733 8.82414C13.4248 8.61324 13.7793 8.61138 14.1368 8.81854C14.4943 9.0257 14.673 9.33045 14.673 9.7328V18.2673C14.673 18.6697 14.4943 18.9744 14.1368 19.1816C13.7793 19.3887 13.4248 19.3869 13.0733 19.176L9.44546 17.0064H7.87492V20.6859C7.87492 20.9342 7.79117 21.1421 7.62365 21.3096C7.45614 21.4771 7.24824 21.5609 6.99995 21.5609C6.75167 21.5609 6.54377 21.4771 6.37625 21.3096C6.20874 21.1421 6.12498 20.9342 6.12498 20.6859V17.0064ZM12.923 17.0155V10.9847L9.93007 12.7436H4.93586C4.84612 12.7436 4.76385 12.781 4.68905 12.8558C4.61427 12.9306 4.57688 13.0129 4.57688 13.1026V14.8975C4.57688 14.9872 4.61427 15.0695 4.68905 15.1443C4.76385 15.2191 4.84612 15.2565 4.93586 15.2565H9.93007L12.923 17.0155ZM16.2884 17.6392V10.361C16.7461 10.7753 17.1148 11.2973 17.3945 11.927C17.6742 12.5567 17.814 13.2477 17.814 14.0001C17.814 14.7524 17.6742 15.4434 17.3945 16.0731C17.1148 16.7028 16.7461 17.2248 16.2884 17.6392Z" fill="#2F4DEF"/>
</g>
</svg>
