<svg width="32" height="32" viewBox="0 0 32 32" fill="none" xmlns="http://www.w3.org/2000/svg">
<mask id="mask0_20984_6853" style="mask-type:alpha" maskUnits="userSpaceOnUse" x="0" y="0" width="32" height="32">
<rect width="32" height="32" fill="#D9D9D9"/>
</mask>
<g mask="url(#mask0_20984_6853)">
<path d="M6.00003 27.3334C5.71672 27.3334 5.47923 27.2375 5.28756 27.0457C5.09589 26.854 5.00006 26.6164 5.00006 26.3329C5.00006 26.0494 5.09589 25.812 5.28756 25.6206C5.47923 25.4291 5.71672 25.3334 6.00003 25.3334H7.66673V5.87188C7.66673 5.53044 7.78173 5.24423 8.01173 5.01325C8.24173 4.78225 8.52674 4.66675 8.86676 4.66675H18.4669C18.8069 4.66675 19.0918 4.78225 19.3218 5.01325C19.5517 5.24423 19.6666 5.53044 19.6666 5.87188V6.00008H23.1281C23.4696 6.00008 23.7558 6.11558 23.9868 6.34658C24.2178 6.57756 24.3333 6.86377 24.3333 7.20522V25.3334H26C26.2833 25.3334 26.5208 25.4293 26.7124 25.621C26.9041 25.8128 26.9999 26.0504 26.9999 26.3338C26.9999 26.6173 26.9041 26.8547 26.7124 27.0462C26.5208 27.2376 26.2833 27.3334 26 27.3334H23.5448C23.1969 27.3334 22.9081 27.2179 22.6782 26.9869C22.4482 26.7559 22.3333 26.4697 22.3333 26.1282V8.00005H19.6666V26.1282C19.6666 26.4697 19.5511 26.7559 19.3202 26.9869C19.0892 27.2179 18.803 27.3334 18.4615 27.3334H6.00003ZM16.1795 16C16.1795 15.6736 16.0645 15.3954 15.8346 15.1655C15.6047 14.9355 15.3265 14.8206 15 14.8206C14.6735 14.8206 14.3953 14.9355 14.1654 15.1655C13.9355 15.3954 13.8205 15.6736 13.8205 16C13.8205 16.3265 13.9355 16.6047 14.1654 16.8347C14.3953 17.0646 14.6735 17.1795 15 17.1795C15.3265 17.1795 15.6047 17.0646 15.8346 16.8347C16.0645 16.6047 16.1795 16.3265 16.1795 16ZM9.66669 25.3334H17.6667V6.66672H9.66669V25.3334Z" fill="#135C9D"/>
</g>
</svg>
