<svg width="24" height="24" viewBox="0 0 24 24" fill="none" xmlns="http://www.w3.org/2000/svg">
<mask id="mask0_163_6994" style="mask-type:alpha" maskUnits="userSpaceOnUse" x="0" y="0" width="24" height="24">
<rect width="24" height="24" fill="#D9D9D9"/>
</mask>
<g mask="url(#mask0_163_6994)">
<path d="M4.49998 20.5C4.28749 20.5 4.10938 20.428 3.96562 20.2842C3.82187 20.1404 3.75 19.9622 3.75 19.7496C3.75 19.537 3.82187 19.3589 3.96562 19.2154C4.10938 19.0718 4.28749 19 4.49998 19H5.75V4.40385C5.75 4.14777 5.83625 3.93311 6.00875 3.75988C6.18125 3.58663 6.39501 3.5 6.65002 3.5H13.8501C14.1051 3.5 14.3188 3.58663 14.4913 3.75988C14.6637 3.93311 14.7499 4.14777 14.7499 4.40385V4.5H17.346C17.6021 4.5 17.8168 4.58663 17.99 4.75988C18.1633 4.93311 18.2499 5.14777 18.2499 5.40385V19H19.4999C19.7124 19 19.8905 19.0719 20.0343 19.2157C20.178 19.3595 20.2499 19.5377 20.2499 19.7503C20.2499 19.9629 20.178 20.141 20.0343 20.2846C19.8905 20.4282 19.7124 20.5 19.4999 20.5H17.6585C17.3977 20.5 17.181 20.4133 17.0086 20.2401C16.8361 20.0668 16.7499 19.8522 16.7499 19.5961V5.99998H14.7499V19.5961C14.7499 19.8522 14.6633 20.0668 14.4901 20.2401C14.3168 20.4133 14.1022 20.5 13.8461 20.5H4.49998ZM12.1346 12C12.1346 11.7551 12.0484 11.5465 11.8759 11.374C11.7035 11.2016 11.4948 11.1154 11.25 11.1154C11.0051 11.1154 10.7965 11.2016 10.624 11.374C10.4516 11.5465 10.3653 11.7551 10.3653 12C10.3653 12.2448 10.4516 12.4535 10.624 12.6259C10.7965 12.7984 11.0051 12.8846 11.25 12.8846C11.4948 12.8846 11.7035 12.7984 11.8759 12.6259C12.0484 12.4535 12.1346 12.2448 12.1346 12ZM7.24997 19H13.25V4.99998H7.24997V19Z" fill="#2F4DEF"/>
</g>
</svg>
