<svg width="16" height="16" viewBox="0 0 16 16" fill="none" xmlns="http://www.w3.org/2000/svg">
<path d="M8.00027 12C8.1793 12 8.32928 11.9395 8.45019 11.8184C8.5711 11.6974 8.63156 11.5474 8.63156 11.3684V7.78945C8.63156 7.61052 8.57101 7.46052 8.44992 7.33947C8.32881 7.21842 8.17874 7.15789 7.99973 7.15789C7.82069 7.15789 7.67072 7.21842 7.54981 7.33947C7.4289 7.46052 7.36844 7.61052 7.36844 7.78945V11.3684C7.36844 11.5474 7.42899 11.6974 7.55008 11.8184C7.67119 11.9395 7.82125 12 8.00027 12ZM8 5.7166C8.19272 5.7166 8.35425 5.65142 8.48461 5.52107C8.61497 5.39071 8.68015 5.22917 8.68015 5.03646C8.68015 4.84375 8.61497 4.68222 8.48461 4.55184C8.35425 4.42149 8.19272 4.35631 8 4.35631C7.80728 4.35631 7.64575 4.42149 7.51539 4.55184C7.38503 4.68222 7.31985 4.84375 7.31985 5.03646C7.31985 5.22917 7.38503 5.39071 7.51539 5.52107C7.64575 5.65142 7.80728 5.7166 8 5.7166ZM8.00141 16C6.89494 16 5.85491 15.79 4.88132 15.3701C3.90772 14.9502 3.06082 14.3803 2.34064 13.6604C1.62044 12.9405 1.05028 12.094 0.63017 11.1208C0.210057 10.1477 0 9.10788 0 8.00141C0 6.89494 0.209966 5.85491 0.629896 4.88132C1.04983 3.90772 1.61972 3.06082 2.33958 2.34064C3.05946 1.62044 3.90598 1.05028 4.87915 0.630171C5.8523 0.210058 6.89212 0 7.99859 0C9.10506 0 10.1451 0.209966 11.1187 0.629897C12.0923 1.04983 12.9392 1.61972 13.6594 2.33959C14.3796 3.05946 14.9497 3.90598 15.3698 4.87915C15.7899 5.8523 16 6.89212 16 7.99859C16 9.10506 15.79 10.1451 15.3701 11.1187C14.9502 12.0923 14.3803 12.9392 13.6604 13.6594C12.9405 14.3796 12.094 14.9497 11.1208 15.3698C10.1477 15.7899 9.10788 16 8.00141 16ZM8 14.7369C9.88071 14.7369 11.4737 14.0842 12.779 12.779C14.0842 11.4737 14.7369 9.88071 14.7369 8C14.7369 6.11929 14.0842 4.52631 12.779 3.22104C11.4737 1.91577 9.88071 1.26314 8 1.26314C6.11929 1.26314 4.52631 1.91577 3.22104 3.22104C1.91577 4.52631 1.26314 6.11929 1.26314 8C1.26314 9.88071 1.91577 11.4737 3.22104 12.779C4.52631 14.0842 6.11929 14.7369 8 14.7369Z" fill="#135C9D"/>
</svg>
