<svg width="24" height="24" viewBox="0 0 24 24" fill="none" xmlns="http://www.w3.org/2000/svg">
<mask id="mask0_23539_9553" style="mask-type:alpha" maskUnits="userSpaceOnUse" x="0" y="0" width="24" height="24">
<rect width="24" height="24" fill="#D9D9D9"/>
</mask>
<g mask="url(#mask0_23539_9553)">
<path d="M16.6116 12.7498H5.25C5.03718 12.7498 4.85898 12.678 4.7154 12.5345C4.5718 12.3909 4.5 12.2127 4.5 11.9999C4.5 11.787 4.5718 11.6088 4.7154 11.4653C4.85898 11.3217 5.03718 11.2499 5.25 11.2499H16.6116L13.3192 7.95753C13.1705 7.80882 13.0971 7.63478 13.099 7.43543C13.1009 7.23608 13.1743 7.05884 13.3192 6.90371C13.4743 6.74859 13.6525 6.66847 13.8538 6.66333C14.0551 6.6582 14.2333 6.7332 14.3884 6.88833L18.8672 11.3672C18.9608 11.4608 19.0269 11.5595 19.0653 11.6633C19.1038 11.7672 19.123 11.8793 19.123 11.9999C19.123 12.1204 19.1038 12.2325 19.0653 12.3364C19.0269 12.4402 18.9608 12.5389 18.8672 12.6325L14.3884 17.1114C14.2397 17.2601 14.0631 17.3335 13.8586 17.3316C13.6541 17.3296 13.4743 17.2511 13.3192 17.096C13.1743 16.9409 13.0993 16.7652 13.0942 16.5691C13.0891 16.3729 13.1641 16.1973 13.3192 16.0422L16.6116 12.7498Z" fill="black"/>
</g>
</svg>
