<svg width="28" height="28" viewBox="0 0 28 28" fill="none" xmlns="http://www.w3.org/2000/svg">
<mask id="mask0_19453_4691" style="mask-type:alpha" maskUnits="userSpaceOnUse" x="0" y="0" width="28" height="28">
<rect width="28" height="28" fill="#D9D9D9"/>
</mask>
<g mask="url(#mask0_19453_4691)">
<path d="M6.19237 23.9173C5.60305 23.9173 5.10422 23.7131 4.69589 23.3048C4.28756 22.8964 4.08339 22.3976 4.08339 21.8083V6.19297C4.08339 5.60365 4.28756 5.10482 4.69589 4.69648C5.10422 4.28815 5.60305 4.08398 6.19237 4.08398H13.1363C13.3845 4.08398 13.5924 4.16775 13.76 4.33529C13.9275 4.5028 14.0113 4.7107 14.0113 4.95898C14.0113 5.20727 13.9275 5.41517 13.76 5.58269C13.5924 5.7502 13.3845 5.83396 13.1363 5.83396H6.19237C6.10262 5.83396 6.02034 5.87135 5.94553 5.94613C5.87075 6.02093 5.83336 6.10321 5.83336 6.19297V21.8083C5.83336 21.898 5.87075 21.9803 5.94553 22.0551C6.02034 22.1299 6.10262 22.1673 6.19237 22.1673H13.1363C13.3845 22.1673 13.5924 22.2511 13.76 22.4186C13.9275 22.5861 14.0113 22.794 14.0113 23.0423C14.0113 23.2906 13.9275 23.4985 13.76 23.666C13.5924 23.8335 13.3845 23.9173 13.1363 23.9173H6.19237ZM20.5536 14.8756H11.4872C11.2389 14.8756 11.031 14.7918 10.8635 14.6243C10.696 14.4568 10.6122 14.2489 10.6122 14.0006C10.6122 13.7523 10.696 13.5444 10.8635 13.3769C11.031 13.2094 11.2389 13.1257 11.4872 13.1257H20.5536L18.31 10.8821C18.1485 10.7205 18.0658 10.5235 18.0621 10.2909C18.0583 10.0583 18.141 9.85153 18.31 9.67054C18.479 9.48957 18.6839 9.39609 18.9247 9.3901C19.1655 9.38411 19.3764 9.47161 19.5574 9.6526L23.1673 13.2625C23.3782 13.4734 23.4836 13.7194 23.4836 14.0006C23.4836 14.2818 23.3782 14.5279 23.1673 14.7387L19.5574 18.3486C19.3839 18.5222 19.1779 18.6078 18.9393 18.6055C18.7007 18.6033 18.491 18.5117 18.31 18.3307C18.141 18.1497 18.0595 17.9418 18.0654 17.707C18.0714 17.4722 18.1589 17.2703 18.3279 17.1012L20.5536 14.8756Z" fill="#E74C3C"/>
</g>
</svg>
