<svg width="28" height="28" viewBox="0 0 28 28" fill="none" xmlns="http://www.w3.org/2000/svg">
<mask id="mask0_163_7013" style="mask-type:alpha" maskUnits="userSpaceOnUse" x="0" y="0" width="28" height="28">
<rect width="28" height="28" fill="#D9D9D9"/>
</mask>
<g mask="url(#mask0_163_7013)">
<path d="M5.21412 14.0178L9.9481 18.7518C10.1096 18.9133 10.1923 19.1163 10.196 19.3609C10.1998 19.6054 10.1171 19.8122 9.9481 19.9812C9.77909 20.1502 9.57419 20.2348 9.33339 20.2348C9.09259 20.2348 8.88768 20.1502 8.71867 19.9812L3.47541 14.7379C3.36621 14.6288 3.28918 14.5136 3.24432 14.3924C3.19944 14.2713 3.177 14.1404 3.177 13.9998C3.177 13.8592 3.19944 13.7283 3.24432 13.6072C3.28918 13.4861 3.36621 13.3709 3.47541 13.2617L8.71867 8.01844C8.89215 7.84494 9.09818 7.75631 9.33674 7.75255C9.5753 7.74882 9.78508 7.83745 9.96607 8.01844C10.147 8.19941 10.2375 8.40731 10.2375 8.64214C10.2375 8.87695 10.147 9.08485 9.96607 9.26584L5.21412 14.0178ZM22.786 13.9819L18.052 9.24787C17.8905 9.08635 17.8078 8.88331 17.8041 8.63876C17.8003 8.39422 17.883 8.18745 18.052 8.01844C18.221 7.84941 18.4259 7.76489 18.6667 7.76489C18.9075 7.76489 19.1124 7.84941 19.2814 8.01844L24.5247 13.2617C24.6339 13.3709 24.7109 13.4861 24.7558 13.6072C24.8007 13.7283 24.8231 13.8592 24.8231 13.9998C24.8231 14.1404 24.8007 14.2713 24.7558 14.3924C24.7109 14.5136 24.6339 14.6288 24.5247 14.7379L19.2814 19.9812C19.108 20.1547 18.9049 20.2403 18.6723 20.2381C18.4397 20.2359 18.233 20.1443 18.052 19.9633C17.871 19.7823 17.7805 19.5744 17.7805 19.3396C17.7805 19.1047 17.871 18.8968 18.052 18.7159L22.786 13.9819Z" fill="#2F4DEF"/>
</g>
</svg>
