<svg width="28" height="28" viewBox="0 0 28 28" fill="none" xmlns="http://www.w3.org/2000/svg">
<mask id="mask0_19410_14119" style="mask-type:alpha" maskUnits="userSpaceOnUse" x="0" y="0" width="28" height="28">
<rect width="28" height="28" fill="#D9D9D9"/>
</mask>
<g mask="url(#mask0_19410_14119)">
<path d="M5.21409 14.0182L9.94807 18.7523C10.1096 18.9138 10.1923 19.1168 10.196 19.3614C10.1997 19.6059 10.1171 19.8127 9.94807 19.9817C9.77906 20.1507 9.57415 20.2352 9.33335 20.2352C9.09256 20.2352 8.88765 20.1507 8.71864 19.9817L3.47538 14.7384C3.36618 14.6293 3.28915 14.5141 3.24429 14.3929C3.19941 14.2718 3.17697 14.1409 3.17697 14.0003C3.17697 13.8597 3.19941 13.7288 3.24429 13.6077C3.28915 13.4865 3.36618 13.3714 3.47538 13.2622L8.71864 8.01893C8.89212 7.84542 9.09815 7.7568 9.33671 7.75304C9.57527 7.74931 9.78505 7.83794 9.96604 8.01893C10.147 8.1999 10.2375 8.4078 10.2375 8.64263C10.2375 8.87744 10.147 9.08534 9.96604 9.26633L5.21409 14.0182ZM22.786 13.9824L18.052 9.24836C17.8904 9.08683 17.8078 8.8838 17.8041 8.63924C17.8003 8.39471 17.8829 8.18794 18.052 8.01893C18.221 7.8499 18.4259 7.76538 18.6667 7.76538C18.9075 7.76538 19.1124 7.8499 19.2814 8.01893L24.5247 13.2622C24.6339 13.3714 24.7109 13.4865 24.7558 13.6077C24.8006 13.7288 24.8231 13.8597 24.8231 14.0003C24.8231 14.1409 24.8006 14.2718 24.7558 14.3929C24.7109 14.5141 24.6339 14.6293 24.5247 14.7384L19.2814 19.9817C19.1079 20.1552 18.9049 20.2408 18.6723 20.2386C18.4397 20.2364 18.2329 20.1447 18.052 19.9638C17.871 19.7828 17.7805 19.5749 17.7805 19.3401C17.7805 19.1052 17.871 18.8973 18.052 18.7164L22.786 13.9824Z" fill="#135C9D"/>
</g>
</svg>
