<svg width="25" height="24" viewBox="0 0 25 24" fill="none" xmlns="http://www.w3.org/2000/svg">
<mask id="mask0_19306_11597" style="mask-type:alpha" maskUnits="userSpaceOnUse" x="0" y="0" width="25" height="24">
<rect x="0.875" width="24" height="24" fill="#D9D9D9"/>
</mask>
<g mask="url(#mask0_19306_11597)">
<path d="M6.89808 17.2923C7.74808 16.6615 8.67403 16.1635 9.67595 15.7981C10.6779 15.4327 11.7442 15.25 12.875 15.25C14.0057 15.25 15.0721 15.4327 16.074 15.7981C17.0759 16.1635 18.0019 16.6615 18.8519 17.2923C19.4737 16.609 19.9663 15.8179 20.3298 14.9192C20.6932 14.0205 20.875 13.0474 20.875 12C20.875 9.78331 20.0958 7.89581 18.5375 6.33748C16.9791 4.77914 15.0916 3.99998 12.875 3.99998C10.6583 3.99998 8.77081 4.77914 7.21248 6.33748C5.65414 7.89581 4.87498 9.78331 4.87498 12C4.87498 13.0474 5.05671 14.0205 5.42018 14.9192C5.78364 15.8179 6.27628 16.609 6.89808 17.2923ZM12.8753 12.75C11.9623 12.75 11.1923 12.4366 10.5654 11.8099C9.93846 11.1831 9.625 10.4133 9.625 9.50028C9.625 8.58726 9.93836 7.81729 10.5651 7.19038C11.1918 6.56346 11.9617 6.25 12.8747 6.25C13.7877 6.25 14.5577 6.56336 15.1846 7.19008C15.8115 7.81681 16.125 8.58668 16.125 9.49968C16.125 10.4127 15.8116 11.1827 15.1849 11.8096C14.5581 12.4365 13.7883 12.75 12.8753 12.75ZM12.875 21.5C11.5557 21.5 10.3183 21.2519 9.1625 20.7557C8.00673 20.2596 7.00128 19.5839 6.14615 18.7288C5.29103 17.8737 4.6154 16.8682 4.11925 15.7125C3.62308 14.5567 3.375 13.3192 3.375 12C3.375 10.6807 3.62308 9.44325 4.11925 8.2875C4.6154 7.13173 5.29103 6.12628 6.14615 5.27115C7.00128 4.41603 8.00673 3.7404 9.1625 3.24425C10.3183 2.74808 11.5557 2.5 12.875 2.5C14.1942 2.5 15.4317 2.74808 16.5875 3.24425C17.7432 3.7404 18.7487 4.41603 19.6038 5.27115C20.4589 6.12628 21.1346 7.13173 21.6307 8.2875C22.1269 9.44325 22.375 10.6807 22.375 12C22.375 13.3192 22.1269 14.5567 21.6307 15.7125C21.1346 16.8682 20.4589 17.8737 19.6038 18.7288C18.7487 19.5839 17.7432 20.2596 16.5875 20.7557C15.4317 21.2519 14.1942 21.5 12.875 21.5ZM12.875 20C13.7775 20 14.6477 19.8548 15.4855 19.5644C16.3234 19.274 17.0673 18.8679 17.7173 18.3461C17.0673 17.8436 16.333 17.4519 15.5144 17.1711C14.6958 16.8903 13.816 16.75 12.875 16.75C11.9339 16.75 11.0525 16.8887 10.2307 17.1663C9.40893 17.4439 8.67623 17.8371 8.03265 18.3461C8.68265 18.8679 9.42657 19.274 10.2644 19.5644C11.1022 19.8548 11.9724 20 12.875 20ZM12.875 11.25C13.3724 11.25 13.7884 11.0827 14.1231 10.7481C14.4577 10.4134 14.625 9.99741 14.625 9.49998C14.625 9.00254 14.4577 8.58651 14.1231 8.25188C13.7884 7.91726 13.3724 7.74995 12.875 7.74995C12.3775 7.74995 11.9615 7.91726 11.6269 8.25188C11.2923 8.58651 11.125 9.00254 11.125 9.49998C11.125 9.99741 11.2923 10.4134 11.6269 10.7481C11.9615 11.0827 12.3775 11.25 12.875 11.25Z" fill="black"/>
</g>
</svg>
