<svg width="24" height="24" viewBox="0 0 24 24" fill="none" xmlns="http://www.w3.org/2000/svg">
<mask id="mask0_28790_13969" style="mask-type:alpha" maskUnits="userSpaceOnUse" x="0" y="0" width="24" height="24">
<rect width="24" height="24" fill="#D9D9D9"/>
</mask>
<g mask="url(#mask0_28790_13969)">
<path d="M11.7008 18.7174C10.813 19.6053 9.74329 20.0493 8.49179 20.0494C7.24029 20.0494 6.17067 19.6056 5.2829 18.7178C4.39514 17.8301 3.95117 16.7603 3.951 15.5086C3.95082 14.2568 4.39467 13.187 5.28253 12.2991L7.41745 10.1642C7.56771 10.014 7.7445 9.93886 7.94783 9.93891C8.15116 9.93895 8.32799 10.0141 8.47832 10.1645C8.62864 10.3148 8.70374 10.4915 8.70362 10.6947C8.70352 10.8979 8.62833 11.0746 8.47807 11.2248L6.34234 13.3606C5.74909 13.9538 5.45247 14.6697 5.45247 15.5083C5.45247 16.3468 5.74936 17.063 6.34316 17.6568C6.93695 18.2506 7.65313 18.5475 8.49168 18.5475C9.33024 18.5475 10.0461 18.2509 10.6394 17.6576L12.7751 15.5219C12.9254 15.3716 13.1022 15.2965 13.3055 15.2966C13.5088 15.2966 13.6857 15.3718 13.836 15.5221C13.9863 15.6725 14.0614 15.8492 14.0613 16.0524C14.0612 16.2555 13.986 16.4323 13.8358 16.5825L11.7008 18.7174ZM10.409 14.6516C10.2587 14.8018 10.082 14.877 9.87864 14.8769C9.6753 14.8769 9.49847 14.8017 9.34815 14.6514C9.19782 14.501 9.12271 14.3243 9.12283 14.1211C9.12294 13.9179 9.19812 13.7412 9.34838 13.591L13.591 9.34832C13.7413 9.19806 13.9181 9.12295 14.1214 9.12298C14.3247 9.12304 14.5016 9.19823 14.6519 9.34855C14.8022 9.49888 14.8773 9.67563 14.8772 9.87879C14.8771 10.082 14.8019 10.2587 14.6516 10.4089L10.409 14.6516ZM16.5826 13.8357C16.4323 13.986 16.2555 14.0611 16.0522 14.061C15.8489 14.061 15.672 13.9858 15.5217 13.8354C15.3714 13.6851 15.2963 13.5084 15.2964 13.3052C15.2965 13.102 15.3717 12.9253 15.522 12.7751L17.6577 10.6393C18.2509 10.0461 18.5476 9.33018 18.5476 8.49163C18.5476 7.65307 18.2507 6.93689 17.6569 6.3431C17.0631 5.74931 16.3469 5.45241 15.5083 5.45241C14.6698 5.45241 13.9539 5.74904 13.3606 6.34229L11.2249 8.47801C11.0746 8.62827 10.8979 8.70338 10.6945 8.70333C10.4912 8.70329 10.3144 8.6281 10.164 8.47778C10.0137 8.32745 9.93861 8.1507 9.93873 7.94753C9.93883 7.74436 10.014 7.56765 10.1643 7.41739L12.2992 5.28247C13.1871 4.39461 14.2567 3.95063 15.5082 3.95055C16.7597 3.95047 17.8294 4.39431 18.7171 5.28207C19.6049 6.16983 20.0489 7.23959 20.049 8.49134C20.0492 9.7431 19.6054 10.8129 18.7175 11.7008L16.5826 13.8357Z" fill="#7F7F7F"/>
</g>
</svg>
