<svg width="24" height="24" viewBox="0 0 24 24" fill="none" xmlns="http://www.w3.org/2000/svg">
<mask id="mask0_19404_12837" style="mask-type:alpha" maskUnits="userSpaceOnUse" x="0" y="0" width="24" height="24">
<rect width="24" height="24" fill="#D9D9D9"/>
</mask>
<g mask="url(#mask0_19404_12837)">
<path d="M15.7731 12.9729L14.65 11.8499C14.8205 10.9601 14.5866 10.2012 13.9481 9.57296C13.3096 8.94476 12.5436 8.70374 11.65 8.84989L10.527 7.72684C10.759 7.61914 10.9978 7.54157 11.2433 7.49414C11.4888 7.44671 11.741 7.42299 12 7.42299C13.1346 7.42299 14.0977 7.81882 14.8894 8.61049C15.6811 9.40216 16.0769 10.3653 16.0769 11.4999C16.0769 11.7589 16.0548 12.0111 16.0106 12.2566C15.9663 12.5021 15.8872 12.7409 15.7731 12.9729ZM18.9538 16.0845L17.85 15.0499C18.4833 14.5666 19.05 14.0291 19.55 13.4374C20.05 12.8457 20.4667 12.1999 20.8 11.4999C19.9667 9.81656 18.7625 8.47906 17.1875 7.48739C15.6125 6.49572 13.8833 5.99989 12 5.99989C11.5167 5.99989 11.0458 6.03322 10.5875 6.09989C10.1292 6.16656 9.66668 6.26656 9.20001 6.39989L8.03466 5.23454C8.67055 4.98326 9.31894 4.798 9.97984 4.67877C10.6407 4.55953 11.3141 4.49991 12 4.49991C14.1487 4.49991 16.1224 5.05825 17.9211 6.17491C19.7199 7.29158 21.1032 8.80247 22.0711 10.7076C22.1378 10.8345 22.1862 10.9624 22.2163 11.0912C22.2464 11.2201 22.2615 11.3563 22.2615 11.4999C22.2615 11.6435 22.249 11.7797 22.224 11.9085C22.199 12.0374 22.1532 12.1653 22.0865 12.2922C21.7327 13.0448 21.2884 13.7396 20.7538 14.3768C20.2192 15.014 19.6192 15.5832 18.9538 16.0845ZM12 18.4999C9.8949 18.4999 7.96542 17.9374 6.21159 16.8124C4.45774 15.6874 3.0635 14.2056 2.02889 12.3672C1.94555 12.2403 1.88466 12.1025 1.84621 11.9537C1.80775 11.805 1.78851 11.6537 1.78851 11.4999C1.78851 11.346 1.80518 11.1973 1.83851 11.0537C1.87185 10.9102 1.93018 10.7698 2.01351 10.6326C2.38531 9.95311 2.80647 9.30599 3.27699 8.69124C3.7475 8.07649 4.28853 7.52553 4.90006 7.03837L2.64236 4.76526C2.5039 4.61655 2.43563 4.43995 2.43756 4.23546C2.43948 4.03098 2.51287 3.85631 2.65774 3.71144C2.8026 3.56657 2.97825 3.49414 3.18466 3.49414C3.39106 3.49414 3.5667 3.56657 3.71156 3.71144L20.2885 20.2883C20.4269 20.4268 20.5003 20.5983 20.5086 20.8027C20.517 21.0072 20.4436 21.187 20.2885 21.3422C20.1436 21.487 19.968 21.5595 19.7615 21.5595C19.5551 21.5595 19.3795 21.487 19.2346 21.3422L15.7154 17.8537C15.1257 18.0819 14.5196 18.2467 13.8971 18.3479C13.2747 18.4492 12.6423 18.4999 12 18.4999ZM5.95389 8.09216C5.36799 8.54473 4.84138 9.0566 4.37406 9.62777C3.90675 10.1989 3.5154 10.823 3.20001 11.4999C4.03335 13.1832 5.23751 14.5207 6.81251 15.5124C8.38751 16.5041 10.1167 16.9999 12 16.9999C12.4295 16.9999 12.8523 16.971 13.2683 16.9133C13.6843 16.8557 14.0975 16.7666 14.5077 16.646L13.2423 15.3499C13.0398 15.4383 12.8375 15.4982 12.6356 15.5297C12.4337 15.5611 12.2218 15.5768 12 15.5768C10.8654 15.5768 9.90228 15.181 9.11061 14.3893C8.31895 13.5976 7.92311 12.6345 7.92311 11.4999C7.92311 11.2781 7.94042 11.0662 7.97504 10.8643C8.00965 10.6624 8.06799 10.4601 8.15004 10.2576L5.95389 8.09216Z" fill="#7F7F7F"/>
</g>
</svg>
