<svg width="28" height="28" viewBox="0 0 28 28" fill="none" xmlns="http://www.w3.org/2000/svg">
<mask id="mask0_14395_18836" style="mask-type:alpha" maskUnits="userSpaceOnUse" x="0" y="0" width="28" height="28">
<rect width="28" height="28" fill="#D9D9D9"/>
</mask>
<g mask="url(#mask0_14395_18836)">
<path d="M8.52588 5.66699H19.4741C19.8042 5.66699 20.0467 5.77001 20.2632 5.98633C20.4797 6.20285 20.5835 6.44616 20.5835 6.77637V21.0156C20.5835 21.431 20.4373 21.7027 20.0845 21.9346C19.7354 22.1639 19.4212 22.1938 19.0229 22.0234L14.394 20.0361L13.9995 19.8672L13.605 20.0361L8.97607 22.0234C8.57775 22.1938 8.26368 22.164 7.91455 21.9346C7.5619 21.7027 7.4165 21.4309 7.4165 21.0156V6.77637C7.4165 6.44616 7.51932 6.20285 7.73584 5.98633C7.95237 5.7698 8.19567 5.66699 8.52588 5.66699Z" stroke="#2F53FF" stroke-width="2"/>
</g>
</svg>
