<svg width="28" height="28" viewBox="0 0 28 28" fill="none" xmlns="http://www.w3.org/2000/svg">
<mask id="mask0_19410_14116" style="mask-type:alpha" maskUnits="userSpaceOnUse" x="0" y="0" width="28" height="28">
<rect width="28" height="28" fill="#D9D9D9"/>
</mask>
<g mask="url(#mask0_19410_14116)">
<path d="M19.609 10.7919H24.2756C24.5235 10.7919 24.7314 10.8758 24.8991 11.0435C25.0667 11.2113 25.1506 11.4192 25.1506 11.6672C25.1506 11.9153 25.0667 12.1231 24.8991 12.2906C24.7314 12.4581 24.5235 12.5418 24.2756 12.5418H19.609C19.361 12.5418 19.1532 12.458 18.9855 12.2902C18.8178 12.1224 18.734 11.9145 18.734 11.6665C18.734 11.4185 18.8178 11.2107 18.9855 11.0432C19.1532 10.8757 19.361 10.7919 19.609 10.7919ZM10.5 13.6412C9.37711 13.6412 8.41583 13.2414 7.61618 12.4417C6.81653 11.6421 6.4167 10.6808 6.4167 9.55791C6.4167 8.435 6.81653 7.47372 7.61618 6.67409C8.41583 5.87444 9.37711 5.47461 10.5 5.47461C11.6229 5.47461 12.5842 5.87444 13.3838 6.67409C14.1835 7.47372 14.5833 8.435 14.5833 9.55791C14.5833 10.6808 14.1835 11.6421 13.3838 12.4417C12.5842 13.2414 11.6229 13.6412 10.5 13.6412ZM1.75006 20.7534V19.9322C1.75006 19.3609 1.90523 18.8318 2.21556 18.3449C2.52593 17.8581 2.94062 17.4838 3.45964 17.222C4.61285 16.6566 5.77615 16.2326 6.94954 15.9499C8.12294 15.6672 9.30642 15.5259 10.5 15.5259C11.6936 15.5259 12.8771 15.6672 14.0505 15.9499C15.2239 16.2326 16.3872 16.6566 17.5404 17.222C18.0594 17.4838 18.4741 17.8581 18.7844 18.3449C19.0948 18.8318 19.25 19.3609 19.25 19.9322V20.7534C19.25 21.2455 19.0776 21.6639 18.7328 22.0086C18.3881 22.3534 17.9697 22.5258 17.4776 22.5258H3.52243C3.03035 22.5258 2.61194 22.3534 2.26719 22.0086C1.92244 21.6639 1.75006 21.2455 1.75006 20.7534ZM3.5 20.7758H17.5V19.9322C17.5 19.6959 17.4316 19.4772 17.2947 19.276C17.1578 19.0748 16.972 18.9107 16.7372 18.7835C15.7321 18.2884 14.7072 17.9134 13.6625 17.6583C12.6178 17.4033 11.5637 17.2758 10.5 17.2758C9.43635 17.2758 8.38219 17.4033 7.33752 17.6583C6.29285 17.9134 5.26795 18.2884 4.26283 18.7835C4.028 18.9107 3.84216 19.0748 3.70531 19.276C3.56844 19.4772 3.5 19.6959 3.5 19.9322V20.7758ZM10.5 11.8912C11.1417 11.8912 11.691 11.6628 12.1479 11.2058C12.6049 10.7489 12.8333 10.1996 12.8333 9.55791C12.8333 8.91625 12.6049 8.36694 12.1479 7.91C11.691 7.45305 11.1417 7.22458 10.5 7.22458C9.85834 7.22458 9.30903 7.45305 8.85209 7.91C8.39514 8.36694 8.16667 8.91625 8.16667 9.55791C8.16667 10.1996 8.39514 10.7489 8.85209 11.2058C9.30903 11.6628 9.85834 11.8912 10.5 11.8912Z" fill="#E74C3C"/>
</g>
</svg>
