<svg width="28" height="28" viewBox="0 0 28 28" fill="none" xmlns="http://www.w3.org/2000/svg">
<mask id="mask0_1_3067" style="mask-type:alpha" maskUnits="userSpaceOnUse" x="0" y="0" width="28" height="28">
<rect width="28" height="28" fill="#D9D9D9"/>
</mask>
<g mask="url(#mask0_1_3067)">
<path d="M13.9998 20.9551L9.36905 22.9429C8.66607 23.2435 7.99824 23.1859 7.36556 22.7701C6.73285 22.3543 6.4165 21.7695 6.4165 21.0157V6.77567C6.4165 6.18635 6.62067 5.68752 7.029 5.27919C7.43734 4.87085 7.93616 4.66669 8.52549 4.66669H19.4741C20.0635 4.66669 20.5623 4.87085 20.9706 5.27919C21.3789 5.68752 21.5831 6.18635 21.5831 6.77567V21.0157C21.5831 21.7695 21.2668 22.3543 20.6341 22.7701C20.0014 23.1859 19.3335 23.2435 18.6306 22.9429L13.9998 20.9551Z" fill="#2F4DEF"/>
</g>
</svg>
