<svg width="28" height="28" viewBox="0 0 28 28" fill="none" xmlns="http://www.w3.org/2000/svg">
<mask id="mask0_24394_5239" style="mask-type:alpha" maskUnits="userSpaceOnUse" x="0" y="0" width="28" height="28">
<rect width="28" height="28" fill="#D9D9D9"/>
</mask>
<g mask="url(#mask0_24394_5239)">
<path d="M14 20.9549L9.36923 22.9427C8.66625 23.2433 7.99842 23.1858 7.36574 22.7699C6.73304 22.3541 6.41669 21.7693 6.41669 21.0155V6.77549C6.41669 6.18617 6.62085 5.68734 7.02919 5.279C7.43752 4.87067 7.93635 4.6665 8.52567 4.6665H19.4743C20.0636 4.6665 20.5625 4.87067 20.9708 5.279C21.3791 5.68734 21.5833 6.18617 21.5833 6.77549V21.0155C21.5833 21.7693 21.2669 22.3541 20.6342 22.7699C20.0016 23.1858 19.3337 23.2433 18.6308 22.9427L14 20.9549Z" fill="#135C9D"/>
</g>
</svg>
