<svg width="28" height="28" viewBox="0 0 28 28" fill="none" xmlns="http://www.w3.org/2000/svg">
<path d="M6.2835 24.8476C5.73225 24.8476 5.26306 24.6541 4.87592 24.2669C4.48859 23.8796 4.29492 23.4103 4.29492 22.859V7.42696C4.29492 6.87571 4.48859 6.40651 4.87592 6.01937C5.26306 5.63204 5.73313 5.43837 6.28613 5.43837H8.01921V2.97058H9.6963V5.43837H18.3477V2.97058H19.9799V5.43837H21.713C22.266 5.43837 22.736 5.63204 23.1232 6.01937C23.5105 6.40651 23.7042 6.87571 23.7042 7.42696V22.859C23.7042 23.4103 23.5105 23.8796 23.1232 24.2669C22.736 24.6541 22.2668 24.8476 21.7156 24.8476H6.2835ZM6.28613 23.2155H21.713C21.8028 23.2155 21.885 23.1781 21.9597 23.1035C22.0346 23.0286 22.072 22.9463 22.072 22.8564V12.0726H5.92709V22.8564C5.92709 22.9463 5.96452 23.0286 6.03938 23.1035C6.11405 23.1781 6.1963 23.2155 6.28613 23.2155ZM5.92709 10.4405H22.072V7.42958C22.072 7.33994 22.0346 7.25769 21.9597 7.18283C21.885 7.10797 21.8028 7.07054 21.713 7.07054H6.28613C6.1963 7.07054 6.11405 7.10797 6.03938 7.18283C5.96452 7.25769 5.92709 7.33994 5.92709 7.42958V10.4405Z" fill="#7F7F7F"/>
</svg>
