<svg width="25" height="24" viewBox="0 0 25 24" fill="none" xmlns="http://www.w3.org/2000/svg">
<path d="M9.575 14.25L12.5 12.475L15.425 14.25L14.65 10.925L17.25 8.675L13.825 8.4L12.5 5.25L11.175 8.4L7.75 8.675L10.35 10.925L9.575 14.25ZM2.5 22V4C2.5 3.45 2.69583 2.97917 3.0875 2.5875C3.47917 2.19583 3.95 2 4.5 2H20.5C21.05 2 21.5208 2.19583 21.9125 2.5875C22.3042 2.97917 22.5 3.45 22.5 4V16C22.5 16.55 22.3042 17.0208 21.9125 17.4125C21.5208 17.8042 21.05 18 20.5 18H6.5L2.5 22ZM5.65 16H20.5V4H4.5V17.125L5.65 16Z" fill="black"/>
</svg>
