<svg width="9" height="16" viewBox="0 0 9 16" fill="none" xmlns="http://www.w3.org/2000/svg">
<path d="M1.70134 7.99281L8.35012 14.642C8.49679 14.7884 8.57509 14.9681 8.58501 15.181C8.59519 15.3937 8.51689 15.5833 8.35012 15.7498C8.18362 15.9166 7.99897 16 7.79619 16C7.5934 16 7.40876 15.9166 7.24225 15.7498L0.370333 8.87832C0.23384 8.74156 0.137928 8.60194 0.0826003 8.45944C0.027533 8.31695 0 8.1614 0 7.99281C0 7.82421 0.027533 7.66866 0.0826003 7.52617C0.137928 7.38367 0.23384 7.24405 0.370333 7.10729L7.24225 0.235762C7.38866 0.0890902 7.56835 0.0107955 7.78131 0.000878217C7.99401 -0.00930009 8.18362 0.0689946 8.35012 0.235762C8.51689 0.402269 8.60027 0.586915 8.60027 0.789698C8.60027 0.992481 8.51689 1.17713 8.35012 1.34363L1.70134 7.99281Z" fill="black"/>
</svg>
