<svg width="28" height="28" viewBox="0 0 28 28" fill="none" xmlns="http://www.w3.org/2000/svg">
<mask id="mask0_19445_8585" style="mask-type:alpha" maskUnits="userSpaceOnUse" x="0" y="0" width="28" height="28">
<rect width="28" height="28" fill="#D9D9D9"/>
</mask>
<g mask="url(#mask0_19445_8585)">
<path d="M13.9996 24.2076C13.7516 24.2076 13.5438 24.1238 13.3763 23.9561C13.2088 23.7884 13.125 23.5806 13.125 23.3327V18.666C13.125 18.4181 13.2089 18.2103 13.3766 18.0426C13.5444 17.8749 13.7523 17.791 14.0003 17.791C14.2484 17.791 14.4562 17.8749 14.6237 18.0426C14.7912 18.2103 14.8749 18.4181 14.8749 18.666V20.1243H23.3333C23.5812 20.1243 23.789 20.2082 23.9567 20.376C24.1244 20.5438 24.2083 20.7517 24.2083 20.9997C24.2083 21.2477 24.1244 21.4555 23.9567 21.623C23.789 21.7905 23.5812 21.8743 23.3333 21.8743H14.8749V23.3327C14.8749 23.5806 14.7911 23.7884 14.6233 23.9561C14.4555 24.1238 14.2476 24.2076 13.9996 24.2076ZM4.66663 21.8743C4.41872 21.8743 4.21092 21.7904 4.04323 21.6226C3.87552 21.4549 3.79166 21.247 3.79166 20.9989C3.79166 20.7509 3.87552 20.5431 4.04323 20.3756C4.21092 20.2081 4.41872 20.1243 4.66663 20.1243H9.3333C9.58122 20.1243 9.78902 20.2082 9.95671 20.376C10.1244 20.5438 10.2083 20.7517 10.2083 20.9997C10.2083 21.2477 10.1244 21.4555 9.95671 21.623C9.78902 21.7905 9.58122 21.8743 9.3333 21.8743H4.66663ZM9.33292 17.2076C9.08489 17.2076 8.87711 17.1238 8.7096 16.9561C8.54209 16.7884 8.45833 16.5806 8.45833 16.3327V14.8743H4.66663C4.41872 14.8743 4.21092 14.7904 4.04323 14.6226C3.87552 14.4549 3.79166 14.247 3.79166 13.9989C3.79166 13.7509 3.87552 13.5431 4.04323 13.3756C4.21092 13.2081 4.41872 13.1243 4.66663 13.1243H8.45833V11.666C8.45833 11.4181 8.54221 11.2103 8.70998 11.0425C8.87777 10.8749 9.08567 10.791 9.33368 10.791C9.58171 10.791 9.78949 10.8749 9.957 11.0425C10.1245 11.2103 10.2083 11.4181 10.2083 11.666V16.3327C10.2083 16.5806 10.1244 16.7884 9.95662 16.9561C9.78884 17.1238 9.58094 17.2076 9.33292 17.2076ZM14 14.8743C13.7521 14.8743 13.5442 14.7904 13.3766 14.6226C13.2089 14.4549 13.125 14.247 13.125 13.9989C13.125 13.7509 13.2089 13.5431 13.3766 13.3756C13.5442 13.2081 13.7521 13.1243 14 13.1243H23.3333C23.5812 13.1243 23.789 13.2082 23.9567 13.376C24.1244 13.5438 24.2083 13.7517 24.2083 13.9997C24.2083 14.2477 24.1244 14.4555 23.9567 14.623C23.789 14.7905 23.5812 14.8743 23.3333 14.8743H14ZM18.6663 10.2076C18.4182 10.2076 18.2104 10.1238 18.0429 9.95609C17.8754 9.78838 17.7917 9.58057 17.7917 9.33265V4.66599C17.7917 4.41807 17.8755 4.21026 18.0433 4.04255C18.2111 3.87486 18.419 3.79102 18.667 3.79102C18.915 3.79102 19.1228 3.87486 19.2903 4.04255C19.4578 4.21026 19.5416 4.41807 19.5416 4.66599V6.12435H23.3333C23.5812 6.12435 23.789 6.20823 23.9567 6.376C24.1244 6.54379 24.2083 6.75169 24.2083 6.9997C24.2083 7.24773 24.1244 7.45551 23.9567 7.62302C23.789 7.79053 23.5812 7.87429 23.3333 7.87429H19.5416V9.33265C19.5416 9.58057 19.4577 9.78838 19.29 9.95609C19.1222 10.1238 18.9143 10.2076 18.6663 10.2076ZM4.66663 7.87429C4.41872 7.87429 4.21092 7.79041 4.04323 7.62264C3.87552 7.45485 3.79166 7.24695 3.79166 6.99894C3.79166 6.75091 3.87552 6.54313 4.04323 6.37562C4.21092 6.20811 4.41872 6.12435 4.66663 6.12435H14C14.2479 6.12435 14.4557 6.20823 14.6234 6.376C14.7911 6.54379 14.8749 6.75169 14.8749 6.9997C14.8749 7.24773 14.7911 7.45551 14.6234 7.62302C14.4557 7.79053 14.2479 7.87429 14 7.87429H4.66663Z" fill="#7F7F7F"/>
</g>
</svg>
