<svg width="22" height="24" viewBox="0 0 22 24" fill="none" xmlns="http://www.w3.org/2000/svg">
<path d="M1.00003 23.3334C0.716717 23.3334 0.479228 23.2375 0.287561 23.0457C0.0958944 22.854 6.10352e-05 22.6164 6.10352e-05 22.3329C6.10352e-05 22.0494 0.0958944 21.812 0.287561 21.6206C0.479228 21.4291 0.716717 21.3334 1.00003 21.3334H2.66673V1.87188C2.66673 1.53044 2.78173 1.24423 3.01173 1.01325C3.24173 0.782249 3.52674 0.666748 3.86676 0.666748H13.4669C13.8069 0.666748 14.0918 0.782249 14.3218 1.01325C14.5517 1.24423 14.6666 1.53044 14.6666 1.87188V2.00008H18.1281C18.4696 2.00008 18.7558 2.11558 18.9868 2.34658C19.2178 2.57756 19.3333 2.86377 19.3333 3.20522V21.3334H21C21.2833 21.3334 21.5208 21.4293 21.7124 21.621C21.9041 21.8128 21.9999 22.0504 21.9999 22.3338C21.9999 22.6173 21.9041 22.8547 21.7124 23.0462C21.5208 23.2376 21.2833 23.3334 21 23.3334H18.5448C18.1969 23.3334 17.9081 23.2179 17.6782 22.9869C17.4482 22.7559 17.3333 22.4697 17.3333 22.1282V4.00005H14.6666V22.1282C14.6666 22.4697 14.5511 22.7559 14.3202 22.9869C14.0892 23.2179 13.803 23.3334 13.4615 23.3334H1.00003ZM11.1795 12C11.1795 11.6736 11.0645 11.3954 10.8346 11.1655C10.6047 10.9355 10.3265 10.8206 10 10.8206C9.67354 10.8206 9.39534 10.9355 9.16543 11.1655C8.93549 11.3954 8.82053 11.6736 8.82053 12C8.82053 12.3265 8.93549 12.6047 9.16543 12.8347C9.39534 13.0646 9.67354 13.1795 10 13.1795C10.3265 13.1795 10.6047 13.0646 10.8346 12.8347C11.0645 12.6047 11.1795 12.3265 11.1795 12ZM4.66669 21.3334H12.6667V2.66672H4.66669V21.3334Z" fill="#135C9D"/>
</svg>
