<svg width="28" height="28" viewBox="0 0 28 28" fill="none" xmlns="http://www.w3.org/2000/svg">
<mask id="mask0_21550_1829" style="mask-type:alpha" maskUnits="userSpaceOnUse" x="0" y="0" width="28" height="28">
<rect width="28" height="28" fill="#D9D9D9"/>
</mask>
<g mask="url(#mask0_21550_1829)">
<path d="M14 20.9549L9.36924 22.9427C8.66626 23.2433 7.99843 23.1858 7.36575 22.7699C6.73305 22.3541 6.41669 21.7693 6.41669 21.0155V6.77549C6.41669 6.18617 6.62086 5.68734 7.02919 5.279C7.43753 4.87067 7.93636 4.6665 8.52568 4.6665H19.4743C20.0636 4.6665 20.5625 4.87067 20.9708 5.279C21.3791 5.68734 21.5833 6.18617 21.5833 6.77549V21.0155C21.5833 21.7693 21.267 22.3541 20.6342 22.7699C20.0016 23.1858 19.3337 23.2433 18.6308 22.9427L14 20.9549ZM14 19.0165L19.3285 21.3117C19.4481 21.364 19.5622 21.3528 19.6707 21.278C19.7791 21.2032 19.8333 21.1022 19.8333 20.9751V6.77549C19.8333 6.68573 19.7959 6.60345 19.7212 6.52865C19.6464 6.45387 19.5641 6.41648 19.4743 6.41648H8.52568C8.43592 6.41648 8.35364 6.45387 8.27884 6.52865C8.20406 6.60345 8.16667 6.68573 8.16667 6.77549V20.9751C8.16667 21.1022 8.22089 21.2032 8.32933 21.278C8.43779 21.3528 8.55185 21.364 8.67151 21.3117L14 19.0165Z" fill="#7F7F7F"/>
</g>
</svg>
