<svg width="28" height="28" viewBox="0 0 28 28" fill="none" xmlns="http://www.w3.org/2000/svg">
<mask id="mask0_19453_4712" style="mask-type:alpha" maskUnits="userSpaceOnUse" x="0" y="0" width="28" height="28">
<rect width="28" height="28" fill="#D9D9D9"/>
</mask>
<g mask="url(#mask0_19453_4712)">
<path d="M6.19235 25.0836C5.61052 25.0836 5.11356 24.8776 4.7015 24.4655C4.28941 24.0534 4.08337 23.5565 4.08337 22.9746V9.91023C3.74086 9.73373 3.46079 9.48282 3.24316 9.15749C3.02552 8.83217 2.9167 8.45711 2.9167 8.03233V5.02598C2.9167 4.44414 3.12275 3.94719 3.53483 3.53512C3.9469 3.12303 4.44385 2.91699 5.02569 2.91699H22.9743C23.5562 2.91699 24.0531 3.12303 24.4652 3.53512C24.8773 3.94719 25.0833 4.44414 25.0833 5.02598V8.03233C25.0833 8.45711 24.9745 8.83217 24.7568 9.15749C24.5392 9.48282 24.2592 9.73373 23.9166 9.91023V22.9746C23.9166 23.5565 23.7106 24.0534 23.2985 24.4655C22.8864 24.8776 22.3895 25.0836 21.8077 25.0836H6.19235ZM5.83334 10.1413V22.9185C5.83334 23.0382 5.87634 23.1373 5.96234 23.2158C6.04837 23.2944 6.15495 23.3336 6.2821 23.3336H21.8077C21.9124 23.3336 21.9984 23.3 22.0657 23.2327C22.133 23.1653 22.1667 23.0793 22.1667 22.9746V10.1413H5.83334ZM5.02569 8.39134H22.9743C23.079 8.39134 23.165 8.35769 23.2324 8.29037C23.2997 8.22305 23.3333 8.13704 23.3333 8.03233V5.02598C23.3333 4.92127 23.2997 4.83525 23.2324 4.76794C23.165 4.70062 23.079 4.66696 22.9743 4.66696H5.02569C4.92098 4.66696 4.83496 4.70062 4.76765 4.76794C4.70033 4.83525 4.66667 4.92127 4.66667 5.02598V8.03233C4.66667 8.13704 4.70033 8.22305 4.76765 8.29037C4.83496 8.35769 4.92098 8.39134 5.02569 8.39134ZM11.5657 15.6717H16.4455C16.6863 15.6717 16.8849 15.5917 17.0412 15.4317C17.1975 15.2716 17.2756 15.0712 17.2756 14.8304C17.2756 14.5896 17.1975 14.391 17.0412 14.2347C16.8849 14.0784 16.6863 14.0003 16.4455 14.0003H11.5545C11.3137 14.0003 11.1151 14.0784 10.9588 14.2347C10.8025 14.391 10.7244 14.5896 10.7244 14.8304C10.7244 15.0712 10.8044 15.2716 10.9644 15.4317C11.1245 15.5917 11.3249 15.6717 11.5657 15.6717Z" fill="#135C9D"/>
</g>
</svg>
