<svg width="24" height="24" viewBox="0 0 24 24" fill="none" xmlns="http://www.w3.org/2000/svg">
<mask id="mask0_28345_37165" style="mask-type:alpha" maskUnits="userSpaceOnUse" x="0" y="0" width="24" height="24">
<rect width="24" height="24" fill="#D9D9D9"/>
</mask>
<g mask="url(#mask0_28345_37165)">
<path d="M11.9999 14.6615C11.8794 14.6615 11.7672 14.6423 11.6634 14.6038C11.5595 14.5653 11.4608 14.4993 11.3672 14.4057L6.87301 9.91151C6.73454 9.77306 6.66371 9.59902 6.66051 9.38941C6.65729 9.17979 6.72812 9.00255 6.87301 8.85768C7.01787 8.71281 7.1935 8.64038 7.3999 8.64038C7.6063 8.64038 7.78194 8.71281 7.9268 8.85768L11.9999 12.9308L16.073 8.85768C16.2115 8.71923 16.3855 8.6484 16.5951 8.64518C16.8047 8.64198 16.9819 8.71281 17.1268 8.85768C17.2717 9.00255 17.3441 9.17819 17.3441 9.38461C17.3441 9.59101 17.2717 9.76664 17.1268 9.91151L12.6326 14.4057C12.539 14.4993 12.4403 14.5653 12.3364 14.6038C12.2326 14.6423 12.1204 14.6615 11.9999 14.6615Z" fill="#7F7F7F"/>
</g>
</svg>
