<svg width="28" height="28" viewBox="0 0 28 28" fill="none" xmlns="http://www.w3.org/2000/svg">
<mask id="mask0_19410_14169" style="mask-type:alpha" maskUnits="userSpaceOnUse" x="0" y="0" width="28" height="28">
<rect width="28" height="28" fill="#D9D9D9"/>
</mask>
<g mask="url(#mask0_19410_14169)">
<path d="M14.157 23.9163C13.9088 23.9163 13.7009 23.8325 13.5333 23.665C13.3658 23.4975 13.2821 23.2896 13.2821 23.0413C13.2821 22.793 13.3658 22.5851 13.5333 22.4176C13.7009 22.2501 13.9088 22.1663 14.157 22.1663H21.8076C21.9049 22.1663 21.989 22.1364 22.0601 22.0766C22.1311 22.0167 22.1666 21.9382 22.1666 21.841V13.681C22.1666 11.4509 21.3687 9.5734 19.7727 8.04851C18.1768 6.52364 16.2525 5.7612 14 5.7612C11.7474 5.7612 9.82316 6.52364 8.22722 8.04851C6.63128 9.5734 5.83331 11.4509 5.83331 13.681V19.6759C5.83331 19.9242 5.74955 20.1321 5.58204 20.2996C5.41452 20.4671 5.20662 20.5509 4.95834 20.5509C4.39894 20.5509 3.91882 20.3561 3.51797 19.9664C3.11711 19.5768 2.91667 19.1023 2.91667 18.5429V16.2769C2.91667 15.8985 3.02436 15.5518 3.23975 15.237C3.45514 14.9221 3.73633 14.669 4.08334 14.4775L4.13721 12.9878C4.23291 11.7179 4.56271 10.5416 5.1266 9.45866C5.69049 8.37574 6.41367 7.43305 7.29613 6.6306C8.17862 5.82815 9.19721 5.20294 10.3519 4.75498C11.5066 4.307 12.7226 4.08301 14 4.08301C15.2773 4.08301 16.4904 4.307 17.6391 4.75498C18.7878 5.20294 19.8064 5.82516 20.6948 6.62165C21.5833 7.41811 22.3065 8.35779 22.8644 9.44069C23.4223 10.5236 23.7551 11.7 23.8627 12.9699L23.9166 14.4304C24.2561 14.5905 24.5355 14.8193 24.7546 15.117C24.9737 15.4146 25.0833 15.7466 25.0833 16.1131V18.7179C25.0833 19.0844 24.9737 19.4164 24.7546 19.714C24.5355 20.0117 24.2561 20.2405 23.9166 20.4006V21.841C23.9166 22.4153 23.7106 22.9048 23.2985 23.3094C22.8864 23.714 22.3895 23.9163 21.8076 23.9163H14.157ZM10.7244 16.0637C10.4387 16.0637 10.1953 15.9669 9.99408 15.7732C9.79291 15.5795 9.69232 15.3398 9.69232 15.0541C9.69232 14.7684 9.79291 14.5269 9.99408 14.3295C10.1953 14.132 10.4387 14.0333 10.7244 14.0333C11.01 14.0333 11.2535 14.132 11.4546 14.3295C11.6558 14.5269 11.7564 14.7684 11.7564 15.0541C11.7564 15.3398 11.6558 15.5795 11.4546 15.7732C11.2535 15.9669 11.01 16.0637 10.7244 16.0637ZM17.2756 16.0637C16.9899 16.0637 16.7465 15.9669 16.5453 15.7732C16.3441 15.5795 16.2436 15.3398 16.2436 15.0541C16.2436 14.7684 16.3441 14.5269 16.5453 14.3295C16.7465 14.132 16.9899 14.0333 17.2756 14.0333C17.5613 14.0333 17.8047 14.132 18.0059 14.3295C18.207 14.5269 18.3076 14.7684 18.3076 15.0541C18.3076 15.3398 18.207 15.5795 18.0059 15.7732C17.8047 15.9669 17.5613 16.0637 17.2756 16.0637ZM7.43301 14.233C7.31185 12.3289 7.90416 10.6997 9.20993 9.34532C10.5157 7.99095 12.1318 7.31377 14.0583 7.31377C15.6767 7.31377 17.1047 7.81447 18.3424 8.81586C19.5801 9.81723 20.3313 11.1136 20.5961 12.7051C18.9388 12.6856 17.4076 12.2504 16.0024 11.3993C14.5972 10.5483 13.5184 9.3816 12.766 7.89935C12.4699 9.3502 11.8491 10.6328 10.9038 11.7471C9.95853 12.8614 8.80159 13.69 7.43301 14.233Z" fill="#135C9D"/>
</g>
</svg>
