<svg width="28" height="28" viewBox="0 0 28 28" fill="none" xmlns="http://www.w3.org/2000/svg">
<mask id="mask0_19655_13162" style="mask-type:alpha" maskUnits="userSpaceOnUse" x="0" y="0" width="28" height="28">
<rect width="28" height="28" fill="#D9D9D9"/>
</mask>
<g mask="url(#mask0_19655_13162)">
<path d="M11.1057 18.2184C9.11342 18.2184 7.42625 17.5274 6.04422 16.1453C4.66217 14.7633 3.97114 13.0761 3.97114 11.0838C3.97114 9.0915 4.66217 7.40432 6.04422 6.02227C7.42625 4.64024 9.11342 3.94922 11.1057 3.94922C13.098 3.94922 14.7852 4.64024 16.1672 6.02227C17.5493 7.40432 18.2403 9.0915 18.2403 11.0838C18.2403 11.9169 18.1005 12.7126 17.8208 13.471C17.541 14.2293 17.1679 14.8889 16.7012 15.4498L23.414 22.1626C23.5756 22.3242 23.6582 22.5272 23.6619 22.7718C23.6657 23.0163 23.5831 23.2231 23.414 23.3921C23.245 23.5611 23.0401 23.6456 22.7993 23.6456C22.5585 23.6456 22.3536 23.5611 22.1846 23.3921L15.4717 16.6793C14.8884 17.1609 14.2176 17.5378 13.4592 17.81C12.7009 18.0823 11.9164 18.2184 11.1057 18.2184ZM11.1057 16.4684C12.6089 16.4684 13.8822 15.9468 14.9254 14.9035C15.9687 13.8602 16.4903 12.587 16.4903 11.0838C16.4903 9.58058 15.9687 8.30734 14.9254 7.26407C13.8822 6.2208 12.6089 5.69916 11.1057 5.69916C9.60251 5.69916 8.32926 6.2208 7.28599 7.26407C6.24274 8.30734 5.72111 9.58058 5.72111 11.0838C5.72111 12.587 6.24274 13.8602 7.28599 14.9035C8.32926 15.9468 9.60251 16.4684 11.1057 16.4684Z" fill="#7F7F7F"/>
</g>
</svg>
