<svg width="16" height="16" viewBox="0 0 16 16" fill="none" xmlns="http://www.w3.org/2000/svg">
<path d="M8 11.9838C8.19272 11.9838 8.35425 11.9186 8.48461 11.7883C8.61497 11.6579 8.68015 11.4964 8.68015 11.3036C8.68015 11.1109 8.61497 10.9494 8.48461 10.819C8.35425 10.6887 8.19272 10.6235 8 10.6235C7.80728 10.6235 7.64575 10.6887 7.51539 10.819C7.38503 10.9494 7.31985 11.1109 7.31985 11.3036C7.31985 11.4964 7.38503 11.6579 7.51539 11.7883C7.64575 11.9186 7.80728 11.9838 8 11.9838ZM8.00027 8.90689C8.17931 8.90689 8.32928 8.84636 8.45019 8.72531C8.5711 8.60427 8.63156 8.45428 8.63156 8.27533V4.4858C8.63156 4.30687 8.57101 4.15688 8.44992 4.03582C8.32881 3.91477 8.17874 3.85424 7.99973 3.85424C7.82069 3.85424 7.67072 3.91477 7.54981 4.03582C7.4289 4.15688 7.36844 4.30687 7.36844 4.4858V8.27533C7.36844 8.45428 7.42899 8.60427 7.55008 8.72531C7.67119 8.84636 7.82125 8.90689 8.00027 8.90689ZM8.00141 16C6.89494 16 5.85491 15.79 4.88132 15.3701C3.90772 14.9502 3.06082 14.3803 2.34064 13.6604C1.62044 12.9405 1.05028 12.094 0.63017 11.1208C0.210057 10.1477 0 9.10788 0 8.00141C0 6.89494 0.209966 5.85491 0.629896 4.88132C1.04983 3.90772 1.61972 3.06082 2.33958 2.34064C3.05946 1.62044 3.90598 1.05028 4.87915 0.630171C5.8523 0.210058 6.89212 0 7.99859 0C9.10506 0 10.1451 0.209966 11.1187 0.629897C12.0923 1.04983 12.9392 1.61972 13.6594 2.33959C14.3796 3.05946 14.9497 3.90598 15.3698 4.87915C15.7899 5.8523 16 6.89212 16 7.99859C16 9.10506 15.79 10.1451 15.3701 11.1187C14.9502 12.0923 14.3803 12.9392 13.6604 13.6594C12.9405 14.3796 12.094 14.9497 11.1208 15.3698C10.1477 15.7899 9.10788 16 8.00141 16ZM8 14.7369C9.88071 14.7369 11.4737 14.0842 12.779 12.779C14.0842 11.4737 14.7369 9.88071 14.7369 8C14.7369 6.11929 14.0842 4.52631 12.779 3.22104C11.4737 1.91577 9.88071 1.26314 8 1.26314C6.11929 1.26314 4.52631 1.91577 3.22104 3.22104C1.91577 4.52631 1.26314 6.11929 1.26314 8C1.26314 9.88071 1.91577 11.4737 3.22104 12.779C4.52631 14.0842 6.11929 14.7369 8 14.7369Z" fill="#E74C3C"/>
</svg>
