<svg width="28" height="28" viewBox="0 0 28 28" fill="none" xmlns="http://www.w3.org/2000/svg">
<mask id="mask0_163_7016" style="mask-type:alpha" maskUnits="userSpaceOnUse" x="0" y="0" width="28" height="28">
<rect width="28" height="28" fill="#D9D9D9"/>
</mask>
<g mask="url(#mask0_163_7016)">
<path d="M15.1657 23.9167C14.0086 23.9167 12.9042 23.7271 11.8524 23.3481C10.8007 22.969 9.84281 22.4384 8.97885 21.7561C8.78441 21.5945 8.67971 21.3926 8.66476 21.1503C8.6498 20.908 8.73281 20.6964 8.91378 20.5154C9.09477 20.3344 9.30828 20.2458 9.55431 20.2495C9.80036 20.2533 10.0258 20.3337 10.2307 20.4907C10.9337 21.0262 11.6962 21.4394 12.5181 21.7303C13.34 22.0212 14.2228 22.1667 15.1666 22.1667C17.4297 22.1667 19.3566 21.3713 20.9473 19.7806C22.538 18.1899 23.3333 16.2631 23.3333 14C23.3333 11.7445 22.5361 9.81946 20.9416 8.22501C19.3472 6.63057 17.4222 5.83335 15.1666 5.83335C12.9111 5.83335 10.9861 6.63057 9.39165 8.22501C7.7972 9.81946 6.99998 11.7445 6.99998 14V14.911L8.71635 13.1946C8.87603 13.0331 9.07561 12.9523 9.31509 12.9523C9.5546 12.9523 9.7611 13.0331 9.93459 13.1946C10.1156 13.3681 10.2042 13.576 10.2005 13.8183C10.1967 14.0606 10.1081 14.2685 9.93459 14.442L6.86313 17.5135C6.65224 17.7244 6.4062 17.8298 6.12501 17.8298C5.84381 17.8298 5.59776 17.7244 5.38686 17.5135L2.29747 14.424C2.12397 14.2505 2.03833 14.0426 2.04057 13.8003C2.04283 13.558 2.13256 13.3561 2.30978 13.1946C2.48703 13.0331 2.69681 12.9512 2.93911 12.9489C3.1814 12.9467 3.38333 13.0323 3.54487 13.2058L5.25001 14.9401V14C5.25001 12.6234 5.51028 11.3339 6.0308 10.1316C6.55131 8.92937 7.25878 7.88101 8.1532 6.98657C9.04765 6.09214 10.0959 5.38467 11.2981 4.86417C12.5002 4.34364 13.7895 4.08337 15.166 4.08337C16.5425 4.08337 17.832 4.34364 19.0346 4.86417C20.2371 5.38467 21.2857 6.09214 22.1801 6.98657C23.0745 7.88101 23.782 8.92926 24.3025 10.1313C24.823 11.3334 25.0833 12.6226 25.0833 13.999C25.0833 16.7518 24.1191 19.0929 22.1907 21.0224C20.2622 22.9519 17.9206 23.9167 15.1657 23.9167ZM12.8333 18.532C12.5218 18.532 12.2607 18.4267 12.05 18.216C11.8393 18.0053 11.734 17.7442 11.734 17.4327V13.9327C11.734 13.6212 11.8458 13.3601 12.0694 13.1494C12.293 12.9387 12.5701 12.8333 12.9006 12.8333V11.5994C12.9006 10.9762 13.1225 10.4427 13.5663 9.99899C14.01 9.55523 14.5435 9.33335 15.1666 9.33335C15.7898 9.33335 16.3233 9.55523 16.767 9.99899C17.2108 10.4427 17.4327 10.9762 17.4327 11.5994V12.8333C17.7632 12.8333 18.0403 12.9387 18.2639 13.1494C18.4875 13.3601 18.5993 13.6212 18.5993 13.9327V17.4327C18.5993 17.7442 18.494 18.0053 18.2833 18.216C18.0726 18.4267 17.8115 18.532 17.5 18.532H12.8333ZM13.9327 12.8333H16.4006V11.6037C16.4006 11.2553 16.2814 10.9618 16.0428 10.7233C15.8042 10.4847 15.5122 10.3654 15.1666 10.3654C14.8211 10.3654 14.5291 10.4847 14.2905 10.7233C14.0519 10.9618 13.9327 11.2553 13.9327 11.6037V12.8333Z" fill="#2F4DEF"/>
</g>
</svg>
