<svg width="28" height="28" viewBox="0 0 28 28" fill="none" xmlns="http://www.w3.org/2000/svg">
<mask id="mask0_19410_14125" style="mask-type:alpha" maskUnits="userSpaceOnUse" x="0" y="0" width="28" height="28">
<rect width="28" height="28" fill="#D9D9D9"/>
</mask>
<g mask="url(#mask0_19410_14125)">
<path d="M15.1657 23.9163C14.0087 23.9163 12.9042 23.7268 11.8525 23.3477C10.8007 22.9687 9.84282 22.438 8.97887 21.7557C8.78442 21.5942 8.67973 21.3922 8.66477 21.1499C8.64982 20.9076 8.73283 20.696 8.9138 20.515C9.09479 20.334 9.3083 20.2454 9.55433 20.2492C9.80038 20.2529 10.0259 20.3333 10.2308 20.4903C10.9338 21.0258 11.6962 21.439 12.5181 21.7299C13.34 22.0208 14.2228 22.1663 15.1667 22.1663C17.4297 22.1663 19.3566 21.371 20.9473 19.7802C22.538 18.1896 23.3333 16.2627 23.3333 13.9996C23.3333 11.7441 22.5361 9.81909 20.9417 8.22465C19.3472 6.6302 17.4222 5.83298 15.1667 5.83298C12.9111 5.83298 10.9861 6.6302 9.39166 8.22465C7.79722 9.81909 7 11.7441 7 13.9996V14.9106L8.71637 13.1942C8.87605 13.0327 9.07562 12.9519 9.3151 12.9519C9.55462 12.9519 9.76112 13.0327 9.9346 13.1942C10.1156 13.3677 10.2042 13.5756 10.2005 13.8179C10.1967 14.0602 10.1081 14.2681 9.9346 14.4416L6.86315 17.5131C6.65225 17.724 6.40621 17.8294 6.12503 17.8294C5.84382 17.8294 5.59777 17.724 5.38688 17.5131L2.29749 14.4237C2.12398 14.2502 2.03835 14.0423 2.04059 13.8C2.04284 13.5577 2.13258 13.3558 2.30979 13.1942C2.48705 13.0327 2.69683 12.9508 2.93912 12.9486C3.18142 12.9463 3.38334 13.0319 3.54489 13.2054L5.25003 14.9398V13.9996C5.25003 12.623 5.51029 11.3335 6.03082 10.1313C6.55133 8.929 7.25879 7.88064 8.15322 6.9862C9.04766 6.09178 10.096 5.38431 11.2981 4.8638C12.5002 4.34327 13.7895 4.08301 15.166 4.08301C16.5425 4.08301 17.832 4.34327 19.0346 4.8638C20.2372 5.38431 21.2857 6.09178 22.1801 6.9862C23.0745 7.88064 23.782 8.9289 24.3025 10.131C24.823 11.333 25.0833 12.6222 25.0833 13.9986C25.0833 16.7514 24.1191 19.0926 22.1907 21.022C20.2622 22.9515 17.9206 23.9163 15.1657 23.9163ZM12.8333 18.5317C12.5218 18.5317 12.2608 18.4263 12.05 18.2156C11.8393 18.0049 11.734 17.7438 11.734 17.4323V13.9323C11.734 13.6208 11.8458 13.3597 12.0694 13.149C12.293 12.9383 12.5701 12.833 12.9006 12.833V11.599C12.9006 10.9758 13.1225 10.4424 13.5663 9.99862C14.01 9.55486 14.5435 9.33298 15.1667 9.33298C15.7898 9.33298 16.3233 9.55486 16.767 9.99862C17.2108 10.4424 17.4327 10.9758 17.4327 11.599V12.833C17.7632 12.833 18.0403 12.9383 18.2639 13.149C18.4875 13.3597 18.5993 13.6208 18.5993 13.9323V17.4323C18.5993 17.7438 18.494 18.0049 18.2833 18.2156C18.0726 18.4263 17.8115 18.5317 17.5 18.5317H12.8333ZM13.9327 12.833H16.4006V11.6033C16.4006 11.2549 16.2814 10.9615 16.0428 10.7229C15.8042 10.4843 15.5122 10.365 15.1667 10.365C14.8212 10.365 14.5291 10.4843 14.2905 10.7229C14.052 10.9615 13.9327 11.2549 13.9327 11.6033V12.833Z" fill="#135C9D"/>
</g>
</svg>
