<svg width="28" height="28" viewBox="0 0 28 28" fill="none" xmlns="http://www.w3.org/2000/svg">
<mask id="mask0_163_7027" style="mask-type:alpha" maskUnits="userSpaceOnUse" x="0" y="0" width="28" height="28">
<rect width="28" height="28" fill="#D9D9D9"/>
</mask>
<g mask="url(#mask0_163_7027)">
<path d="M14.157 23.9168C13.9087 23.9168 13.7008 23.833 13.5333 23.6655C13.3658 23.498 13.282 23.2901 13.282 23.0418C13.282 22.7935 13.3658 22.5856 13.5333 22.4181C13.7008 22.2506 13.9087 22.1668 14.157 22.1668H21.8076C21.9048 22.1668 21.989 22.1369 22.06 22.0771C22.1311 22.0172 22.1666 21.9387 22.1666 21.8414V13.6815C22.1666 11.4514 21.3686 9.57389 19.7727 8.049C18.1767 6.52413 16.2525 5.76169 13.9999 5.76169C11.7474 5.76169 9.82312 6.52413 8.22718 8.049C6.63123 9.57389 5.83326 11.4514 5.83326 13.6815V19.6764C5.83326 19.9247 5.74951 20.1326 5.58199 20.3001C5.41448 20.4676 5.20658 20.5514 4.95829 20.5514C4.3989 20.5514 3.91877 20.3566 3.51793 19.9669C3.11706 19.5773 2.91663 19.1028 2.91663 18.5434V16.2774C2.91663 15.899 3.02432 15.5523 3.23971 15.2375C3.45509 14.9226 3.73629 14.6695 4.08329 14.478L4.13716 12.9883C4.23287 11.7184 4.56267 10.542 5.12656 9.45915C5.69044 8.37623 6.41362 7.43354 7.29609 6.63109C8.17857 5.82864 9.19716 5.20343 10.3519 4.75547C11.5066 4.30749 12.7226 4.0835 13.9999 4.0835C15.2773 4.0835 16.4903 4.30749 17.639 4.75547C18.7877 5.20343 19.8063 5.82565 20.6948 6.62213C21.5832 7.4186 22.3064 8.35828 22.8643 9.44118C23.4222 10.5241 23.755 11.7005 23.8627 12.9703L23.9166 14.4309C24.2561 14.591 24.5354 14.8198 24.7545 15.1175C24.9737 15.4151 25.0832 15.7471 25.0832 16.1136V18.7184C25.0832 19.0849 24.9737 19.4169 24.7545 19.7145C24.5354 20.0122 24.2561 20.241 23.9166 20.4011V21.8414C23.9166 22.4158 23.7105 22.9053 23.2984 23.3099C22.8864 23.7145 22.3894 23.9168 21.8076 23.9168H14.157ZM10.7243 16.0642C10.4386 16.0642 10.1952 15.9674 9.99403 15.7737C9.79286 15.58 9.69228 15.3403 9.69228 15.0546C9.69228 14.7689 9.79286 14.5274 9.99403 14.33C10.1952 14.1325 10.4386 14.0338 10.7243 14.0338C11.01 14.0338 11.2534 14.1325 11.4546 14.33C11.6558 14.5274 11.7563 14.7689 11.7563 15.0546C11.7563 15.3403 11.6558 15.58 11.4546 15.7737C11.2534 15.9674 11.01 16.0642 10.7243 16.0642ZM17.2756 16.0642C16.9899 16.0642 16.7464 15.9674 16.5453 15.7737C16.3441 15.58 16.2435 15.3403 16.2435 15.0546C16.2435 14.7689 16.3441 14.5274 16.5453 14.33C16.7464 14.1325 16.9899 14.0338 17.2756 14.0338C17.5612 14.0338 17.8047 14.1325 18.0058 14.33C18.207 14.5274 18.3076 14.7689 18.3076 15.0546C18.3076 15.3403 18.207 15.58 18.0058 15.7737C17.8047 15.9674 17.5612 16.0642 17.2756 16.0642ZM7.43297 14.2334C7.31181 12.3294 7.90412 10.7002 9.20989 9.34581C10.5157 7.99144 12.1318 7.31426 14.0583 7.31426C15.6766 7.31426 17.1047 7.81496 18.3424 8.81634C19.5801 9.81771 20.3313 11.1141 20.5961 12.7056C18.9388 12.6861 17.4075 12.2509 16.0023 11.3998C14.5971 10.5487 13.5183 9.38209 12.766 7.89984C12.4698 9.35069 11.8491 10.6333 10.9038 11.7476C9.95849 12.8619 8.80155 13.6905 7.43297 14.2334Z" fill="#2F4DEF"/>
</g>
</svg>
