<svg width="28" height="28" viewBox="0 0 28 28" fill="none" xmlns="http://www.w3.org/2000/svg">
<path d="M14.0026 17.7894C13.877 17.7894 13.7611 17.7689 13.6549 17.7278C13.5488 17.6866 13.4447 17.6152 13.3429 17.5135L10.2874 14.4577C10.1736 14.3441 10.1141 14.2102 10.1089 14.056C10.1036 13.902 10.1631 13.7607 10.2874 13.632C10.4159 13.5034 10.5545 13.438 10.7033 13.4357C10.8522 13.4335 10.991 13.4967 11.1195 13.6252L13.4193 15.925V6.41671C13.4193 6.25065 13.475 6.11192 13.5864 6.0005C13.6978 5.88908 13.8365 5.83337 14.0026 5.83337C14.1687 5.83337 14.3074 5.88908 14.4188 6.0005C14.5302 6.11192 14.5859 6.25065 14.5859 6.41671V15.925L16.8857 13.6252C16.9993 13.5117 17.1342 13.4523 17.2906 13.447C17.4469 13.4418 17.5893 13.5034 17.7179 13.632C17.8421 13.7607 17.9053 13.8983 17.9074 14.045C17.9098 14.1916 17.8466 14.3291 17.7179 14.4577L14.6624 17.5135C14.5605 17.6152 14.4564 17.6866 14.3503 17.7278C14.2441 17.7689 14.1282 17.7894 14.0026 17.7894ZM7.72069 22.1667C7.18363 22.1667 6.73524 21.9868 6.37552 21.6271C6.0158 21.2674 5.83594 20.819 5.83594 20.282V18.0385C5.83594 17.8724 5.89165 17.7337 6.00306 17.6222C6.11448 17.5108 6.25322 17.4551 6.41927 17.4551C6.58533 17.4551 6.72406 17.5108 6.83548 17.6222C6.9469 17.7337 7.0026 17.8724 7.0026 18.0385V20.282C7.0026 20.4616 7.07737 20.6262 7.2269 20.7757C7.37642 20.9253 7.54102 21 7.72069 21H20.2845C20.4642 21 20.6288 20.9253 20.7783 20.7757C20.9278 20.6262 21.0026 20.4616 21.0026 20.282V18.0385C21.0026 17.8724 21.0583 17.7337 21.1697 17.6222C21.2811 17.5108 21.4199 17.4551 21.5859 17.4551C21.752 17.4551 21.8907 17.5108 22.0021 17.6222C22.1136 17.7337 22.1693 17.8724 22.1693 18.0385V20.282C22.1693 20.819 21.9894 21.2674 21.6297 21.6271C21.27 21.9868 20.8216 22.1667 20.2845 22.1667H7.72069Z" fill="#7F7F7F"/>
</svg>
