<svg width="79" height="20" viewBox="0 0 79 20" fill="none" xmlns="http://www.w3.org/2000/svg">
<path d="M8.84278 0.137451H12.8372V13.7146C12.8277 17.4961 10.1616 19.8619 6.25257 19.8619C2.74204 19.8619 -0.00946349 18.0092 2.44637e-05 14.1612H4.02291C4.05137 15.7099 5.00017 16.603 6.44233 16.603C7.97938 16.603 8.83329 15.6149 8.84278 13.7146V0.137451Z" fill="#CCCCCC"/>
<path d="M15.4167 10C15.4167 16.1021 19.6255 20 25.4028 20C31.18 20 35.3888 16.1021 35.3888 10C35.3888 3.89785 31.18 0 25.4028 0C19.6255 0 15.4167 3.89785 15.4167 10ZM19.6517 10C19.6517 6.45161 21.926 3.87097 25.4028 3.87097C28.8796 3.87097 31.1539 6.45161 31.1539 10C31.1539 13.5484 28.8796 16.129 25.4028 16.129C21.926 16.129 19.6517 13.5484 19.6517 10Z" fill="#CCCCCC"/>
<path d="M38.0835 19.8735V0.415039H45.8162C50.0952 0.415039 52.2585 2.4863 52.2585 5.41266C52.2585 7.71195 50.7594 9.13713 48.7479 9.58368V9.77371C50.9491 9.87822 53.0175 11.6169 53.0175 14.5148C53.0175 17.5932 50.7025 19.8735 46.319 19.8735H38.0835ZM42.1159 16.5576H45.522C47.8371 16.5576 48.8523 15.5884 48.8523 14.1158C48.8523 12.4815 47.6094 11.3319 45.6074 11.3319H42.1159V16.5576ZM42.1159 8.56706H45.2184C46.9168 8.56706 48.1787 7.62644 48.1787 6.06825C48.1787 4.65257 47.135 3.69295 45.2943 3.69295H42.1159V8.56706Z" fill="#CCCCCC"/>
<path d="M60.5143 0.273438V19.7319H56.4819V0.273438H60.5143Z" fill="#CCCCCC"/>
<path d="M74.2705 5.83373C74.1187 4.28504 72.8948 3.38242 70.9213 3.38242C68.8814 3.38242 67.7428 4.32304 67.7428 5.6057C67.7144 7.03088 69.166 7.65796 70.8454 8.04751L72.6007 8.47506C75.9214 9.22565 78.3978 10.9264 78.4168 14.1758C78.3978 17.7292 75.6273 20 70.8928 20C66.2058 20 63.2076 17.8242 63.0938 13.6627H67.0123C67.1451 15.62 68.7011 16.5986 70.8454 16.5986C72.9612 16.5986 74.3275 15.62 74.337 14.1568C74.3275 12.8361 73.132 12.2185 71.0162 11.696L68.8909 11.1734C65.6175 10.3753 63.5966 8.74109 63.6061 5.87173C63.5871 2.34679 66.7087 0 70.9498 0C75.2573 0 78.0942 2.3848 78.1511 5.83373H74.2705Z" fill="#CCCCCC"/>
</svg>
