<svg width="25" height="24" viewBox="0 0 25 24" fill="none" xmlns="http://www.w3.org/2000/svg">
<mask id="mask0_19445_8490" style="mask-type:alpha" maskUnits="userSpaceOnUse" x="0" y="0" width="25" height="24">
<rect x="0.375" width="24" height="24" fill="#D9D9D9"/>
</mask>
<g mask="url(#mask0_19445_8490)">
<path d="M5.6827 20.5C5.18558 20.5 4.76003 20.3229 4.40602 19.9689C4.05201 19.6149 3.875 19.1894 3.875 18.6923V5.3077C3.875 4.81058 4.05201 4.38503 4.40602 4.03103C4.76003 3.67701 5.18558 3.5 5.6827 3.5H10.1327C10.1955 2.94488 10.4378 2.47278 10.8596 2.08368C11.2814 1.69456 11.7881 1.5 12.3798 1.5C12.9714 1.5 13.4782 1.69456 13.9 2.08368C14.3218 2.47278 14.5609 2.94488 14.6173 3.5H19.0673C19.5644 3.5 19.9899 3.67701 20.3439 4.03103C20.6979 4.38503 20.875 4.81058 20.875 5.3077V18.6923C20.875 19.1894 20.6979 19.6149 20.3439 19.9689C19.9899 20.3229 19.5644 20.5 19.0673 20.5H5.6827ZM5.6827 19H19.0673C19.1442 19 19.2147 18.9679 19.2788 18.9038C19.3429 18.8397 19.375 18.7692 19.375 18.6923V5.3077C19.375 5.23077 19.3429 5.16024 19.2788 5.09613C19.2147 5.03203 19.1442 4.99998 19.0673 4.99998H5.6827C5.60577 4.99998 5.53524 5.03203 5.47112 5.09613C5.40702 5.16024 5.37497 5.23077 5.37497 5.3077V18.6923C5.37497 18.7692 5.40702 18.8397 5.47112 18.9038C5.53524 18.9679 5.60577 19 5.6827 19ZM8.37498 16.6346H13.375C13.5875 16.6346 13.7656 16.5627 13.9094 16.4189C14.0531 16.275 14.125 16.0968 14.125 15.8843C14.125 15.6717 14.0531 15.4936 13.9094 15.35C13.7656 15.2064 13.5875 15.1346 13.375 15.1346H8.37498C8.16248 15.1346 7.98436 15.2065 7.84063 15.3503C7.69688 15.4941 7.625 15.6723 7.625 15.8849C7.625 16.0975 7.69688 16.2756 7.84063 16.4192C7.98436 16.5628 8.16248 16.6346 8.37498 16.6346ZM8.37498 12.75H16.375C16.5875 12.75 16.7656 12.6781 16.9094 12.5343C17.0531 12.3904 17.125 12.2122 17.125 11.9997C17.125 11.7871 17.0531 11.609 16.9094 11.4654C16.7656 11.3218 16.5875 11.25 16.375 11.25H8.37498C8.16248 11.25 7.98436 11.3219 7.84063 11.4657C7.69688 11.6095 7.625 11.7877 7.625 12.0003C7.625 12.2129 7.69688 12.391 7.84063 12.5346C7.98436 12.6782 8.16248 12.75 8.37498 12.75ZM8.37498 8.86535H16.375C16.5875 8.86535 16.7656 8.79344 16.9094 8.64963C17.0531 8.50583 17.125 8.32763 17.125 8.11503C17.125 7.90244 17.0531 7.72436 16.9094 7.58078C16.7656 7.43718 16.5875 7.36538 16.375 7.36538H8.37498C8.16248 7.36538 7.98436 7.43728 7.84063 7.5811C7.69688 7.72492 7.625 7.90312 7.625 8.1157C7.625 8.3283 7.69688 8.50639 7.84063 8.64998C7.98436 8.79356 8.16248 8.86535 8.37498 8.86535ZM12.375 4.34613C12.5916 4.34613 12.7708 4.27529 12.9125 4.13363C13.0541 3.99196 13.125 3.81279 13.125 3.59613C13.125 3.37946 13.0541 3.20029 12.9125 3.05863C12.7708 2.91696 12.5916 2.84613 12.375 2.84613C12.1583 2.84613 11.9791 2.91696 11.8375 3.05863C11.6958 3.20029 11.625 3.37946 11.625 3.59613C11.625 3.81279 11.6958 3.99196 11.8375 4.13363C11.9791 4.27529 12.1583 4.34613 12.375 4.34613Z" fill="black"/>
</g>
</svg>
