<svg width="24" height="24" viewBox="0 0 24 24" fill="none" xmlns="http://www.w3.org/2000/svg">
<path d="M10.5095 20.0004C8.73766 20.0004 6.70296 20.0004 6.00958 20.0004C4.00958 20.0004 4.25036 20 4.25024 18.5C4.25013 17 4.25022 5.00001 4.25022 3.5C4.25022 1.99999 4.75022 1.99962 5.75022 2.00001C6.75022 2.0004 14.2502 2.00003 14.2502 2.00003C14.2502 2.00003 17.7501 2.00002 18.7502 2.00003C19.7503 2.00005 19.7501 2.00021 19.7502 3.50021C19.7503 5.00021 20.0094 18.0004 20.0095 19.0004C20.0096 20.0004 20.0097 20.0004 18.5096 20.0004C17.8591 20.0004 15.7982 20.0004 13.5095 20.0004M10.5095 20.0004C11.6322 20.0004 12.3501 20.0004 13.5095 20.0004M10.5095 20.0004C10.5095 20.0004 10.5002 17.4999 10.5002 16.9999C10.5002 16.4999 10.5188 16.5007 11.0095 16.5003C11.5002 16.4999 12.6636 16.5001 13.0095 16.5004C13.5188 16.5009 13.5095 16.4999 13.5095 16.9999C13.5095 17.4999 13.5095 20.0004 13.5095 20.0004M15.5095 4.49992V6.5004H17.5095V4.5004L15.5095 4.49992ZM8.5095 6.5004V4.5004H6.5095V6.5004H8.5095ZM11.0095 4.5004V6.5004H13.0095V4.5004H11.0095ZM11.0095 8.5004H13.0095V10.5004H11.0095V8.5004ZM15.5095 8.5004H17.5095V10.5004H15.5095V8.5004ZM8.5095 8.5004V10.5004H6.5095V8.5004H8.5095ZM6.5095 12.5004H8.5095V14.5004H6.5095V12.5004ZM11.0095 12.5004V14.5004H13.0095V12.5004H11.0095ZM15.5095 12.5004H17.5095L17.5002 14.4999H15.5002L15.5095 12.5004Z" stroke="black"/>
</svg>
