<svg width="81" height="80" viewBox="0 0 81 80" fill="none" xmlns="http://www.w3.org/2000/svg">
<path d="M35.8327 55.3334L59.3327 31.8334L54.666 27.1667L35.8327 46.0001L26.3327 36.5001L21.666 41.1667L35.8327 55.3334ZM40.4993 73.3334C35.8882 73.3334 31.5549 72.4584 27.4993 70.7084C23.4438 68.9584 19.916 66.5834 16.916 63.5834C13.916 60.5834 11.541 57.0556 9.79102 53.0001C8.04102 48.9445 7.16602 44.6112 7.16602 40.0001C7.16602 35.389 8.04102 31.0556 9.79102 27.0001C11.541 22.9445 13.916 19.4167 16.916 16.4167C19.916 13.4167 23.4438 11.0417 27.4993 9.29175C31.5549 7.54175 35.8882 6.66675 40.4993 6.66675C45.1105 6.66675 49.4438 7.54175 53.4993 9.29175C57.5549 11.0417 61.0827 13.4167 64.0827 16.4167C67.0827 19.4167 69.4577 22.9445 71.2077 27.0001C72.9577 31.0556 73.8327 35.389 73.8327 40.0001C73.8327 44.6112 72.9577 48.9445 71.2077 53.0001C69.4577 57.0556 67.0827 60.5834 64.0827 63.5834C61.0827 66.5834 57.5549 68.9584 53.4993 70.7084C49.4438 72.4584 45.1105 73.3334 40.4993 73.3334Z" fill="#2F53FF"/>
</svg>
