<svg width="28" height="28" viewBox="0 0 28 28" fill="none" xmlns="http://www.w3.org/2000/svg">
<mask id="mask0_163_7030" style="mask-type:alpha" maskUnits="userSpaceOnUse" x="0" y="0" width="28" height="28">
<rect width="28" height="28" fill="#D9D9D9"/>
</mask>
<g mask="url(#mask0_163_7030)">
<path d="M6.1924 25.0834C5.61056 25.0834 5.11361 24.8773 4.70154 24.4652C4.28946 24.0532 4.08341 23.5562 4.08341 22.9744V9.90998C3.7409 9.73348 3.46083 9.48257 3.24321 9.15725C3.02557 8.83192 2.91675 8.45687 2.91675 8.03209V5.02573C2.91675 4.4439 3.12279 3.94694 3.53488 3.53488C3.94694 3.12279 4.4439 2.91675 5.02573 2.91675H22.9744C23.5562 2.91675 24.0532 3.12279 24.4652 3.53488C24.8773 3.94694 25.0834 4.4439 25.0834 5.02573V8.03209C25.0834 8.45687 24.9745 8.83192 24.7569 9.15725C24.5393 9.48257 24.2592 9.73348 23.9167 9.90998V22.9744C23.9167 23.5562 23.7106 24.0532 23.2986 24.4652C22.8865 24.8773 22.3895 25.0834 21.8077 25.0834H6.1924ZM5.83339 10.141V22.9183C5.83339 23.0379 5.87639 23.137 5.96239 23.2156C6.04841 23.2941 6.155 23.3334 6.28214 23.3334H21.8077C21.9124 23.3334 21.9984 23.2997 22.0657 23.2324C22.1331 23.1651 22.1667 23.0791 22.1667 22.9744V10.141H5.83339ZM5.02573 8.3911H22.9744C23.0791 8.3911 23.1651 8.35744 23.2324 8.29012C23.2997 8.22281 23.3334 8.13679 23.3334 8.03209V5.02573C23.3334 4.92102 23.2997 4.83501 23.2324 4.76769C23.1651 4.70038 23.0791 4.66672 22.9744 4.66672H5.02573C4.92102 4.66672 4.83501 4.70038 4.76769 4.76769C4.70038 4.83501 4.66672 4.92102 4.66672 5.02573V8.03209C4.66672 8.13679 4.70038 8.22281 4.76769 8.29012C4.83501 8.35744 4.92102 8.3911 5.02573 8.3911ZM11.5657 15.6715H16.4456C16.6864 15.6715 16.8849 15.5915 17.0412 15.4314C17.1975 15.2714 17.2757 15.071 17.2757 14.8302C17.2757 14.5893 17.1975 14.3908 17.0412 14.2345C16.8849 14.0782 16.6864 14.0001 16.4456 14.0001H11.5545C11.3137 14.0001 11.1152 14.0782 10.9589 14.2345C10.8026 14.3908 10.7244 14.5893 10.7244 14.8302C10.7244 15.071 10.8044 15.2714 10.9645 15.4314C11.1245 15.5915 11.3249 15.6715 11.5657 15.6715Z" fill="#2F4DEF"/>
</g>
</svg>
