<svg width="49" height="48" viewBox="0 0 49 48" fill="none" xmlns="http://www.w3.org/2000/svg">
<mask id="mask0_26586_11628" style="mask-type:alpha" maskUnits="userSpaceOnUse" x="0" y="0" width="49" height="48">
<rect x="0.75" width="48" height="48" fill="#D9D9D9"/>
</mask>
<g mask="url(#mask0_26586_11628)">
<path d="M23.25 37.4999H20.7499C20.3249 37.4999 19.9687 37.3561 19.6813 37.0685C19.3938 36.7809 19.25 36.4245 19.25 35.9993C19.25 35.5741 19.3938 35.2179 19.6813 34.9308C19.9687 34.6436 20.3249 34.5 20.7499 34.5H23.25V29.3769C20.6551 28.9999 18.5064 27.8249 16.8038 25.8519C15.1013 23.8788 14.25 21.5743 14.25 18.9384C14.25 16.0335 15.2737 13.5676 17.3212 11.5406C19.3686 9.51352 21.8448 8.5 24.7499 8.5C27.6551 8.5 30.1313 9.51352 32.1787 11.5406C34.2262 13.5676 35.2499 16.0335 35.2499 18.9384C35.2499 21.5743 34.3986 23.8788 32.6961 25.8519C30.9935 27.8249 28.8448 28.9999 26.2499 29.3769V34.5H28.7499C29.1749 34.5 29.5312 34.6438 29.8187 34.9314C30.1062 35.219 30.2499 35.5754 30.2499 36.0006C30.2499 36.4258 30.1062 36.782 29.8187 37.0692C29.5312 37.3563 29.1749 37.4999 28.7499 37.4999H26.2499V40C26.2499 40.425 26.1061 40.7812 25.8185 41.0687C25.5309 41.3562 25.1745 41.4999 24.7493 41.4999C24.3241 41.4999 23.9679 41.3562 23.6807 41.0687C23.3936 40.7812 23.25 40.425 23.25 40V37.4999ZM24.7531 26.5C26.8254 26.5 28.5929 25.7676 30.0558 24.3027C31.5186 22.8378 32.25 21.0692 32.25 18.9969C32.25 16.9246 31.5176 15.157 30.0527 13.6942C28.5878 12.2313 26.8191 11.4999 24.7468 11.4999C22.6745 11.4999 20.907 12.2324 19.4441 13.6973C17.9813 15.1622 17.2499 16.9308 17.2499 19.0031C17.2499 21.0754 17.9824 22.8429 19.4473 24.3058C20.9122 25.7686 22.6808 26.5 24.7531 26.5Z" fill="#7F7F7F"/>
</g>
</svg>
