<svg width="25" height="24" viewBox="0 0 25 24" fill="none" xmlns="http://www.w3.org/2000/svg">
<mask id="mask0_19306_11520" style="mask-type:alpha" maskUnits="userSpaceOnUse" x="0" y="0" width="25" height="24">
<rect x="0.125" width="24" height="24" fill="#D9D9D9"/>
</mask>
<g mask="url(#mask0_19306_11520)">
<path d="M6.4327 20.5C5.93558 20.5 5.51002 20.323 5.15602 19.969C4.80201 19.615 4.625 19.1894 4.625 18.6923V10.1539C4.625 9.86767 4.68902 9.59652 4.81707 9.34043C4.94512 9.08435 5.12212 8.87346 5.34807 8.70776L11.0404 4.42891C11.3563 4.18789 11.7173 4.06738 12.1234 4.06738C12.5296 4.06738 12.8916 4.18789 13.2096 4.42891L18.9019 8.70776C19.1278 8.87346 19.3048 9.08435 19.4329 9.34043C19.5609 9.59652 19.625 9.86767 19.625 10.1539V18.6923C19.625 19.1894 19.4479 19.615 19.0939 19.969C18.7399 20.323 18.3144 20.5 17.8172 20.5H6.4327ZM6.4327 19H17.8172C17.907 19 17.9807 18.9712 18.0384 18.9135C18.0961 18.8558 18.125 18.7821 18.125 18.6923V10.1539C18.125 10.1026 18.1138 10.0561 18.0913 10.0145C18.0689 9.97279 18.0384 9.93593 18 9.90388L12.3077 5.63466C12.2564 5.58979 12.1955 5.56736 12.125 5.56736C12.0545 5.56736 11.9936 5.58979 11.9423 5.63466L6.24997 9.90388C6.21152 9.93593 6.18107 9.97279 6.15862 10.0145C6.13619 10.0561 6.12497 10.1026 6.12497 10.1539V18.6923C6.12497 18.7821 6.15382 18.8558 6.21152 18.9135C6.26923 18.9712 6.34295 19 6.4327 19Z" fill="black"/>
</g>
</svg>
