<svg width="24" height="24" viewBox="0 0 24 24" fill="none" xmlns="http://www.w3.org/2000/svg">
<mask id="mask0_28790_13548" style="mask-type:alpha" maskUnits="userSpaceOnUse" x="0" y="0" width="24" height="24">
<rect width="24" height="24" transform="matrix(1 0 0 -1 0 24)" fill="#D9D9D9"/>
</mask>
<g mask="url(#mask0_28790_13548)">
<path d="M12 9.33849C11.8795 9.33849 11.7673 9.35773 11.6635 9.39619C11.5597 9.43466 11.4609 9.50069 11.3674 9.59427L6.87313 14.0885C6.73466 14.2269 6.66383 14.401 6.66063 14.6106C6.65741 14.8202 6.72824 14.9975 6.87313 15.1423C7.01799 15.2872 7.19363 15.3596 7.40003 15.3596C7.60643 15.3596 7.78206 15.2872 7.92693 15.1423L12 11.0692L16.0731 15.1423C16.2116 15.2808 16.3856 15.3516 16.5952 15.3548C16.8048 15.358 16.9821 15.2872 17.1269 15.1423C17.2718 14.9975 17.3443 14.8218 17.3443 14.6154C17.3443 14.409 17.2718 14.2334 17.1269 14.0885L12.6327 9.59427C12.5391 9.50069 12.4404 9.43466 12.3366 9.39619C12.2327 9.35773 12.1205 9.33849 12 9.33849Z" fill="#7F7F7F"/>
</g>
</svg>
